<?xml version="1.0" standalone="no"?>
<!DOCTYPE svg PUBLIC "-//W3C//DTD SVG 1.1//EN" "http://www.w3.org/Graphics/SVG/1.1/DTD/svg11.dtd" >
<svg xmlns="http://www.w3.org/2000/svg" xmlns:xlink="http://www.w3.org/1999/xlink" version="1.1">
<metadata></metadata>
<defs>
<font id="b52regular" horiz-adv-x="1153" >
<font-face units-per-em="2048" ascent="1638" descent="-410" />
<missing-glyph horiz-adv-x="1024" />
<glyph horiz-adv-x="0" />
<glyph unicode="&#xd;" horiz-adv-x="1024" />
<glyph unicode=" "  horiz-adv-x="1024" />
<glyph unicode="&#x09;" horiz-adv-x="1024" />
<glyph unicode="&#xa0;" horiz-adv-x="1024" />
<glyph unicode="!" d="M426 119l18 90l91 121l145 -51l49 -109l-35 -160l-88 -16l-110 16l-52 51zM444 961l39 159l52 72h88l106 -143l-49 -127l-21 -127l21 -54l-21 -266v-53l-90 -37h-20l-53 90l-13 197v69l13 17z" />
<glyph unicode="&#x22;" d="M350 1135l35 217h127l88 -109l-18 -14l-33 -94l-37 -37l-20 -123l20 -35v-74l-20 -18l20 -17v-36l-37 -33h-74l-34 233l18 90zM672 1278l53 53l53 21l109 -21l18 -74l-18 -370l-19 -56l19 -16l-35 -53l-21 -21h-73l-33 125l16 92z" />
<glyph unicode="#" d="M-209 -315l25 77l26 29l11 43l53 64v36h6l12 33l43 66l27 61l39 37l53 123l-8 18l18 43l31 23l-4 4l33 18l-9 9l33 63v19l29 6h8l33 73l-29 27h-82l8 8v13l-8 4h-16l8 65l53 33l54 12l28 25l53 -8l17 -19l41 51l20 74l78 98l8 45l39 54v18h15l12 19l24 61l27 16v11l-8 8 h18l15 18l-7 51l25 43l12 -4l52 68v27l81 82h9l26 24v29l17 16l26 -6h19l45 -55l-17 -99l17 -18l-25 -31l-45 -37l6 -10l-35 -29l-8 -51l-26 -45l-9 8l-38 -32l-5 -103l-45 -43l-45 -90l-30 -14v-13l14 -8h-14l-15 -18v-25l-37 -43v-12l9 -8h-9l-8 -19l-16 -14l37 -4l8 -8 l18 20l70 6l12 11v-11h25l72 11l88 28l10 -12l12 16l21 74l77 98l9 45l39 54v18h14l12 19l25 61l26 16v11l-8 8h19l14 18l-6 51l24 43l13 -4l51 68v27l82 82h8l27 24v29l16 16l27 -6h18l45 -55l-16 -99l16 -18l-24 -31l-46 -37l7 -10l-35 -29l-8 -51l-27 -45l-8 8l-39 -32 l-4 -103l-45 -43l-45 -90l-31 -14v-13l14 -8h-14l-14 -18v-25l-37 -43v-12l8 -8h-8l-8 -19l-29 -26l12 -8h-12l6 -9v-26l-10 -27v-24l-53 -39h-17l-16 -33v-6l-15 -13v-30l-26 -47l39 -4l26 -46h37v-6l19 -12l26 -51l-10 -90l-63 -19l-9 -6l-168 -37l-34 29l-7 -37v-20l-8 8 l-37 -43v-8l9 -11l-35 -32l-35 -103v-14l-53 -74l-13 -27l-32 -45l-17 -61l-28 -53l-37 -19l-33 -6l-100 -45v6l-33 10l6 9l-16 20v33l10 10l-19 19l25 77l27 29l10 43l53 64v36h6l13 33l43 66l26 61l39 37l16 33h-51l-63 -6v6l-70 18l-8 -6h-10l-15 14l-37 -14l-51 2v-14 l-6 -33v-20l-8 8l-37 -43v-8l8 -11l-35 -32l-34 -103v-14l-54 -74l-12 -27l-33 -45l-16 -61l-29 -53l-37 -19l-32 -6l-101 -45v6l-32 10l6 9l-17 20v33l11 10zM397 397h4l52 -28l82 12l6 4v21l63 -9v-12l19 -16h49l33 63v19l28 6h8l25 53l-53 10h-19l-26 -24l-82 4l-8 14 l-17 -27l-26 27l-56 -14l-20 20h-8l-5 -6v-14l-14 -13v-30z" />
<glyph unicode="$" d="M178 70l19 61l-13 45v19h13l16 53l-16 106v82l16 27l61 -8v-11l64 -34v-43l24 -80h19v-21l63 -53h19l8 -37l82 -24v36l8 21l-18 33l18 41l-8 28v39l-10 2l14 37v31l4 22l-18 29l10 8l-12 27v39h2l6 33h4v12h-31l-59 33l-29 -9h-33l-12 9l-27 55l-43 8l-53 64l-10 8h-14 l6 10l-27 43v33l-24 39v63l-19 15l27 18v25h16l21 20l-13 10l19 15v32l8 -14l39 27v30l43 25l24 -10l44 28l14 -10l51 35l8 -8l37 28l19 -6l14 17l8 30l-4 4v82h4l4 29l21 21h10l22 -54h9l-13 -49l8 -8l-12 -35v-29l8 -18l-4 -29l84 -10l51 -27h31l6 -24l54 -45h8l10 63 l10 43h54l24 -18l12 -64h-12l-33 -61l25 -45l-12 -33l20 -20l-8 -99l-25 -26h-18l-27 63l-10 -8v27l-27 26l-8 43l-8 -6l-10 45l-19 8l-24 17h-13l-8 -12v12l-18 8l-25 18l-8 -8l-55 51l12 -16l-20 -49v-4l6 -8l-6 -21l-9 -8l11 -29l-2 -4l16 -33l-6 -16l-4 -45h4l6 -115 l-6 -26l86 -33l82 8l35 -27l43 -81h18v-9l37 -8l27 -61l-7 -13l33 -32l12 -35h-12v-90l12 -11h-12l-8 -8l25 -35l-5 11l-38 -111v-16h-7l-20 -54v-8l-16 -18l4 -10l-43 -17l-35 -43l-33 -18l-29 8h-24l-13 -8l-77 -8l-9 -13v-20h-16v-19l-4 -2v-8h-16l-5 -4l-24 -4l-25 29 l-4 32l-24 25l-78 -8l-57 45l-29 16l-58 -37v-16h-98l-16 16zM311 918l27 -48l-19 -14l11 -55l32 -33l64 -31l8 13l37 -25v-14l8 -6h8l9 6l39 18l6 -4l8 4l-6 8l14 56l-25 61l-6 -2v18l35 39l-4 25l-22 12v15h6v26l-15 17l15 26l2 64h-21l-35 -13l-8 -14l17 -18l-62 -25 l-57 10v8l-21 19h-12v-27l12 -10l-18 -20v-25l-19 -18zM633 410l26 -50l-16 -26l8 -10v-13l8 -20v-17l9 -18l-9 -31l5 -8l8 -37l6 -12l-2 -4l53 6l33 51l39 21v16l35 33l-9 12l27 45l-18 33l36 39v6l-8 10h8l7 8l-15 27l8 12l-36 33v10l-25 6l-111 46h-32l-25 18v-43l8 -8 l-8 -31z" />
<glyph unicode="%" d="M2 586l4 164l23 41l16 73l31 58l39 32l53 66l108 43l56 -12l45 22h12l17 -26l20 -15l29 15h45l37 30h45l61 25l57 57l45 -4l50 33l61 22l62 43l20 9l45 -9l29 -43l16 -92l-82 -110l-51 -117l-43 -47l-12 -62l-17 -45l-28 -16l-25 -45l-41 -37l-24 -31l8 -39l-45 -43v-30 l10 -13h67l70 33h168l72 -67l18 -5l37 -51l18 -112l35 -37l-24 -27l-11 -74l-55 -67l-31 -78l-65 -84l-55 -33l-177 -53l-73 10l-41 27l-39 8l-55 82l-11 43l9 176l30 64l-4 57l-12 12l-14 -8l-48 -82l-32 -43l-11 -39l-55 -59l-12 -70l-33 -22l-41 -70l-4 -33l-74 -90 l-30 -67l-68 -48l-55 9l-35 47l20 84l62 98l20 57l54 74l73 152l135 184l5 82l24 37l-12 12h-33l-66 -55l-86 -43l-65 26h-78l-41 60zM139 647l19 -47h22l21 23h20l25 -11h26l105 117l24 62v53l-73 82l-21 -4l-82 -58l-24 -61l-47 -41zM440 512l15 -8l32 18l13 17l10 30 l-10 39l53 31l8 25l57 57l33 51v47l-37 25v24l17 17l33 24v29l-41 4l-19 -16l-12 -45l-23 -23l-4 -86l-69 -104l-9 -56l-47 -30v-70zM592 352h22l29 25l4 45l-12 12h-17l-14 -16zM758 106l39 -34h26l25 26l16 64l54 39l4 57l12 66l-16 28l-54 8l-41 -53l-55 -137zM768 991 h14l15 13v12l-11 8h-4l-14 -8v-25z" />
<glyph unicode="&#x26;" d="M45 279l8 36v27h13l14 72v10l-8 8l24 19v6l-6 10h6l13 8v25l26 14l19 25l32 26l58 13l102 102v61l-51 90l8 146h8l21 53v43l114 82l46 16h90l4 9v-9l12 -8h8l8 8l45 -8l29 -18h14l19 -35h12l8 8v-20l17 -4l18 -21v-69l8 -56v-71l-63 -62v-45l-19 -16l11 -29l-70 -45 l-29 -25l11 -8l-27 -18l8 -8h-8v-39l16 -25l45 -18h19l16 39l-16 32l55 25l25 57l78 33l20 29l78 16l47 18v-18l18 -8l99 -90l16 -90h-12l-43 -68l-72 -39h-18l-60 64h-18l-19 -39v-13l9 -12h-9l-6 -8l-10 53h-20l-13 -20v-43l-12 -60l-20 -28v-54l32 -61l-12 -8l90 -103 l33 21l53 57l-6 4l43 47l66 7l12 -15l12 8l33 -26l20 -37v-78h-8l-18 -45l-27 -18v-19l-24 -8h-13l-8 -16h-18l-35 -39l-29 -19l-43 13l-10 6l-25 -19l-61 13l-72 24v21l-35 32l-8 -8v8h-55l-47 -59l-49 -12l-82 -43l-29 24l-4 -8l-31 -16l-35 8l-16 16l-66 -24v8l-32 16 h-19v13l-43 18l-47 43l-24 8h-11l-20 51v39l-14 19v24l-29 43h-8l-19 21l13 8v10zM225 307l4 -8l29 -8l10 -101l43 -47l8 15h13l14 -19h43l21 -20h26l74 45l33 45l10 -8l8 90l-26 63h-11l-8 27l-37 51l-59 10l-55 78l-54 -53l-8 8l-35 -43l6 -8l-16 -18l10 -9v-16l-18 -45 l-25 -12v-17zM428 934l64 -119l43 -10l63 47l53 49l8 66l-16 24l-12 -8l-17 21l-61 16l-43 10l-64 -47v-25l-18 -18v-6z" />
<glyph unicode="'" d="M381 1202l16 51l54 131l73 29l140 -14l73 -109l-18 -176l-35 -72l29 -120l-29 -222l-106 -71l-17 -17l-57 17l-53 71l20 222l-74 262z" />
<glyph unicode="(" d="M453 549l39 303l69 160l139 254l131 123h52v-89l-109 -108v-35l-127 -123l-35 -268l-34 -37l-17 -291l37 -53v-35l-20 -14l34 -37l23 -109l65 -157l144 -160l22 -94v-37l-55 -33l-164 164l-12 70l-94 125l-49 247z" />
<glyph unicode=")" d="M420 -127l215 266l72 160l14 160l37 73l-17 89l17 18l-17 68l17 22l-51 211l-72 182l-143 178l-37 68l20 21l74 -21l16 -51l156 -211l90 -305l20 -377l-73 -305l-86 -176l-107 -164l-53 -17h-74l-18 37v74z" />
<glyph unicode="*" d="M176 913v33l17 45v43l98 19l37 20h78l-78 86l8 8v13l-53 12l20 20l-12 62h-8v29h8v45l-4 -5l-13 9l9 4l8 -8l12 36v25l25 -6h32l11 6v-18l47 -27l88 -61l8 10l43 -56l-8 -8l29 -10h24l10 10l35 21v33l25 45v24l12 -8l45 45l-12 8v13l37 16l65 -29l76 13l18 -27v-39 l-26 -139l-51 -13l-17 -96l17 -18h59v-17l31 -20h8l6 12l76 -74h4v-16h-4v8l-12 8v-61l16 -25l-4 -30l14 -35l-61 -8l-29 -29l-53 20l-25 17h-18v20l-21 15h-4l-20 -15l-25 25h-12l-8 -45l20 -55l-12 -68l-45 -53v-29l-58 -16l-63 -13l-18 45l-9 13l-12 43l-8 10l20 33 l-12 65v17l21 16l-29 27l-107 -52h-61l-35 9h-31l-12 -17l-78 60h-4l-28 43z" />
<glyph unicode="+" d="M127 393v74l74 49h282l35 37l-12 254l35 65l51 37l72 -65l16 -146l-16 -20l16 -139l92 -35l176 12l109 -12l16 -25v-69l-90 -68l-160 16l-86 -16h-37l-36 -55l16 -176l-16 -109l-86 -74l-60 74l-12 158l12 90v69l-35 39l-321 19l-19 16h-16z" />
<glyph unicode="," d="M362 176l19 88l33 51v21l37 18l36 35l9 -8l61 43h29l18 -18l64 12v-12l4 -9h28l-8 -8l27 -18h18v-11l33 -14h18v-31l39 -57l4 6v-82h-4l-20 -102v-121l-8 12l-17 -45h-20l-51 -82l8 -6l-37 -39l10 -8l-63 -67l-72 -58l-86 -18h-45l-57 100l28 96h17l12 21l18 16l-12 8 l19 19v26h28l25 25v31l10 8l-35 6l-8 10h-20l-7 27l-12 8h-18l-8 37l-17 18l8 7l-8 12z" />
<glyph unicode="-" d="M49 479l43 78l80 55h82l33 9l12 8l33 -8l61 -19l13 -6h14l10 6l45 10h258l82 -16l25 16l151 -10l37 -6l16 -18l11 4l18 -17l21 17l4 -4l-8 -9l8 -12h20l-12 -139l-8 -64l-37 -47l-45 -16h-25l-18 -19h-8l-11 11l-8 -11l-141 31l-35 -12l-20 16l-33 -16l-90 12l-29 -31 l-53 11l-88 20l-27 -20l-24 8l-224 16l-76 29l-30 35l-15 63v29z" />
<glyph unicode="." d="M315 168h9v25l-9 98l45 80l64 47h14l29 24l61 21l11 -12h18l8 16l115 -49l45 -47l25 -25v-39l12 -4l18 -45l-30 -76v-43h-9l-4 -35v-24l-82 -39l-53 -37h-37l-8 -6l-18 16l-39 -16l-4 -8l-29 8l-43 43l-10 -8h-29l-25 35l-24 90z" />
<glyph unicode="/" d="M-20 -315l24 77l29 29l8 43l53 64v36h6l15 33l43 66l24 61l39 37l51 115l7 18h12l8 15l16 57l-4 6l33 18l-8 9l33 63v19l28 6h9l36 82l33 39l12 51l27 26l-10 9l61 77l21 74l78 98l8 45l39 54v18h14l12 19l25 61l26 16v11l-8 8h19l16 18l-8 51l24 43l13 -4l51 68v27 l82 82h10l25 24v29l18 16l25 -6h18l45 -55l-16 -99l16 -18l-24 -31l-45 -37l6 -10l-35 -29l-8 -51l-25 -45l-10 8l-37 -32l-6 -103l-45 -43l-45 -90l-29 -14v-13l12 -8h-12l-16 -18v-25l-37 -43v-12l8 -8h-8l-8 -19l-29 -26l12 -8h-12l-8 -29l-19 -33l-51 -63l-12 -25v-14 l-14 -13v-30l-43 -76h-13l-16 -21v-6l8 -12l-53 -78l-8 -18l-39 -45v-37l-6 -33v-20l-9 8l-36 -43v-8l8 -11l-33 -32l-37 -103v-14l-53 -74l-12 -27l-33 -45l-17 -61l-28 -53l-35 -19l-35 -6l-98 -45v6l-35 10l6 9l-16 20v33l10 10z" />
<glyph unicode="0" d="M98 604l11 86v68l116 241l117 142l74 51l170 18l6 9l67 -13l111 -39l82 -16l78 -2l8 -12v-13l-37 -10h-12l-10 -8l10 -33l41 -29l53 -122l33 -60l26 -71l15 -136l-53 -336l-29 -59l-19 -27l-12 -53l-55 -65l-15 -41l-108 -76l-115 -27l-37 -24h-36l-82 -15l-29 39h-61 l-46 35l-53 8l-20 70l-41 72l-37 22l-66 152l-34 231zM264 453l12 -68l27 -51l4 -68l62 -57l37 -57l45 -37l81 -4l70 32l82 -12l123 117l45 63l4 105l33 59l4 60l8 108l-22 137l-27 43l-12 68l-56 100l-82 41l-170 19l-36 -11l-37 -28l-53 -21l-5 -18l-55 -82v-55l-39 -41 l-35 -97zM424 442l16 41l15 25l37 -12l18 -13l10 -12l-24 -45l-13 -10l-16 -6l-35 12zM487 676l5 26h4l14 -12v-14h-23z" />
<glyph unicode="1" d="M123 37l4 39l53 26l49 -10l66 23l106 -13h25l14 29l4 45l39 74l-4 53l-26 49l14 66l12 26l-22 82l-13 156l9 35l30 20l17 17l-29 168l12 43l-16 51l-37 35h-72l-96 22l-24 17h-72l-35 51l8 30l37 25l72 14l82 -14l192 6h150l246 8l24 -18l53 -86l-18 -70l-64 -28l-53 16 h-65l-54 -55v-68h-24l-12 8l20 60l-25 35l-22 16h-14l-17 -25l-12 -82l-19 -98l-12 -43l12 -133l-16 -82v-98l-10 -29l10 -63l-10 -68l26 -156l15 -12l69 12l33 -24l98 4l50 39l24 -4l82 -105v-16l-53 -57l-4 -13l-12 -12l-82 12l-13 -12l-78 35l-129 -6h-43l-81 14l-48 18 l-286 -10l-27 19zM686 721l27 24h28l9 -118v-19l-9 -12h-24l-27 43zM1012 -6v22h28l7 -10v-16l-7 -10h-12z" />
<glyph unicode="2" d="M94 119l12 51l37 47l15 59l14 27l41 29l12 16l8 41l62 43l29 4l65 56l21 12l22 41v28l12 13l48 -13l12 -8l41 8l51 45l35 9l65 63l82 64l23 86l-8 32l-35 37l-8 41l-82 92l-193 5l-69 -31l-35 4h-17l-26 -43l-13 -64l52 -114l-23 -37l-90 -53l-29 8l-90 102l12 135l15 82 l67 54l25 38l117 64l82 10l26 12l164 -12l49 -26l70 -9l135 -61l25 -21l8 -65l26 -25l39 -8l13 -10l-35 -76l10 -57l-61 -226l-82 -45l-78 -69l-29 -41l-20 -19h-74l-43 -30l-55 -13l-70 -61l-49 -16l-55 -48l4 -10l10 -12l63 -10l31 -39h111l73 -62h27l33 41l72 41l69 86 l41 37l51 -8l43 -86v-123l-53 -63l10 -52l-6 -6l-51 -4l-27 -12l-49 -4l-45 -27l-123 -8l-28 12l-54 4l-65 45h-78l-76 72l-51 -8l-82 -74l-33 -16l-41 8l-37 39z" />
<glyph unicode="3" d="M127 193l20 159l21 33l22 16l125 5l86 -99v-55l-12 -19l27 -69l24 -25l70 -12l68 -27l65 27l53 -12l41 12l60 66l14 28l41 23l22 26l-14 111l-37 35v35l-82 41h-45l-12 28l-25 19h-67l-55 39l-95 -5l-14 29l23 57l59 52l68 -13l24 27v16h49l78 9l76 86l-21 57v61l-55 70 l-33 12h-24l-17 -45l-26 -16l-15 12l-12 53v13l-10 10l-60 -10l-26 -23l-10 -39l-29 -28h-25l-26 28l-15 -4l-43 -69v-41l-98 -82l-31 12l-39 59l-14 133v82l-12 25l16 47l70 61l53 -10l51 -12l74 16l51 -12l41 23l250 -23l49 -33l129 -106l64 -58v-106l-45 -45l-6 -68 l-68 -82l25 -26l-44 -33v-33l44 -28l30 -13l35 -33v-53l29 -41l4 -32l22 -25l-43 -188l-47 -41l-14 -64l-72 -35l-14 -35l-78 -18l-29 -25l-69 -4l-230 4l-69 25l-62 33l-39 12l-108 82z" />
<glyph unicode="4" d="M119 299v137l28 64l62 41l137 188l27 72l114 149l25 54l57 47l29 34l23 58l81 67l17 4l14 -4l107 -82l12 -67v-242l-21 -65l9 -49l12 -41l-21 -68l13 -55v-41l90 -68l70 -2l30 -45v-82l-30 -27h-119l-45 -55l-9 -24v-21l39 -29l23 15l29 63l26 -4l10 -74l58 -32l14 -70 l-10 -35l-41 -39l-113 -8l-67 8l-111 -8l-164 8l-37 45l9 52l43 24l77 14l64 70l-4 41l-82 70l-131 -11l-129 -26l-66 8l-30 18l-56 -18l-39 8zM406 530l26 -59l43 -22l103 -13l32 39h62l8 12l8 27l19 43l8 35l-27 31l-12 32l16 90l-41 82l21 29l-13 12l-16 -16l-45 -66 l-115 -118l-8 -21l-47 -55z" />
<glyph unicode="5" d="M139 279l4 55l29 47l23 16l67 4l19 9l81 -29l52 -66l-4 -36l-39 -41l6 -17l33 -24l16 12h18l13 -12l-13 -31l56 -27l41 25l49 -21l57 39l43 -12l35 35h29l45 65l12 72l25 47v160l-103 98l-47 25l-55 -17l-35 4l-4 17v12l-10 10h-17l-4 -30l-8 -9h-12l-19 43h-43l-69 -34 l-48 -47l-43 -15l-20 -20l-37 4l-61 43l-21 55l13 88l-13 113l21 115l-8 20l20 139l35 29h88l123 27l137 -5l22 9l111 -19l57 10l119 -18l45 -59l-12 -47l49 -9l12 -8v-6l-12 -10l-37 6l-12 10l-127 -37l-57 21l-25 -13h-57l-49 -36l-58 4l-43 32h-55l-27 -8l-43 27l-35 -10 l-14 -17l6 -37l23 -36l-19 -54l-10 -8v-29l23 -24l108 18l35 15h64l14 12h39l28 -21l66 -10l33 -35l53 -8l135 -143l19 -64l8 -92l14 -28l-4 -136l-18 -96l-47 -108l-123 -138l-41 -22l-103 -8h-37l-36 -33l-119 20l-19 17l-78 12l-43 37h-38l-60 72l-37 57l-18 78zM522 291 h31l12 -12h17l26 28l23 -4l4 -33v-18h-39l-14 12l-29 -12l-18 8zM1042 694v17l13 4l26 -4l4 -9v-4l-12 -10h-26zM1047 1057v16h22l4 -6v-4l-8 -6h-18z" />
<glyph unicode="6" d="M147 633l27 104l70 205l30 41l13 47l51 47l14 39l58 27l28 4l49 61l29 9l82 8l18 10l125 -23l35 -49l72 -8l37 -25l37 -65l28 -35l-6 -47l-86 -86l-125 25l-53 116l-82 23l-70 -27l-41 -4l-49 -65l-14 -64l-55 -61l2 -21l121 -14l43 -27h67l31 49h39l49 -57l59 -20 l51 -45l74 -13l13 -59l63 -76l18 -51l9 -156l-21 -55l-16 -94l-53 -78l-13 -29l-43 -26l-43 -15l-86 -78l-217 -4l-49 11l-61 38l-41 17l-74 82l-43 28l-62 95l7 69l-5 29l-22 27l-4 82l-2 157zM315 389l9 -35l14 -90l18 -26l64 -54l55 -20l33 -29l49 -16l25 24l30 4l27 -12 h20l27 78h39l29 -29h22l60 54l12 57l22 55l-12 27v86l-55 78l-49 4v8l-41 43l-74 4l-31 23l-51 -17l-53 21l-41 -41l-39 -13l-59 -55l-35 -74z" />
<glyph unicode="7" d="M111 1061l20 82l43 33l55 -5l41 -24l82 8l82 47l82 -6l88 -12l64 -41l61 -13l57 13l45 -13l41 13l46 33l36 -5l37 -51v-178l-41 -98l-16 -58l-25 -16l-24 -33l-4 -22l-123 -129l-45 -68l-62 -112l-43 -142v-51l15 -27l-15 -55l-14 -25v-53l-29 -71l-49 -27l-53 16l-29 27 l-20 70l12 67v66l4 71l14 47l9 58l30 51l39 113l31 20l41 66l53 65l47 33l64 80l14 117l-51 30l-86 43l-49 17l-37 39l-131 -21l-66 -88l-28 -82l-17 -63l-51 -119l-39 -14l-70 14l-12 27l-8 73l16 92l-16 56l8 69z" />
<glyph unicode="8" d="M74 360l45 172l82 107l-4 53l-66 156l-4 115l47 75l27 60l65 59l45 14l66 54l45 2l41 16l63 -12l43 12l160 -39l62 -8l63 -25l80 -45l57 -6l8 -4v-18l-36 -25l-13 -12l27 -82v-70l22 -39v-26l-36 -66l-45 -53l-9 -70l54 -57l10 -41l59 -51l12 -19v-81l11 -37l-35 -152 l-29 -65l-41 -52l-16 -51l-70 -31l-188 -59l-29 -12l-225 20l-41 15h-47l-39 36l-78 11l-37 65l-78 82zM270 432l29 -117l-8 -20v-41h20l4 57h29l16 -16v-41l7 -12l22 -13l53 13l29 -25l12 -16h33l37 -29l115 -20h77l54 73l37 4l18 17l37 41l10 51l-29 39l-4 59l-24 35 l-13 4l-55 45h-71l-37 37h-82l-21 -8l-35 -29l-30 -4l-33 27h-49l-56 -43l-43 -8l-28 -29zM307 913l60 -135l34 -16l152 -25l45 13l147 8l17 43l49 26l20 86l-16 27l-53 27v12l14 12l15 8v17l-5 4l-73 33l-92 24l-23 -16l-131 -12l-78 -15l-51 -26z" />
<glyph unicode="9" d="M111 696l4 162l16 82l31 109l47 67l106 80l111 47l41 6l76 -6l26 -12l90 -4l177 -74l98 -72l70 -65v-107l-13 -39v-30l29 -29v-27l-29 -26l-14 -74l22 -37l-8 -61l-18 -25l4 -61l-51 -76l-8 -35l-33 -61l6 -47l4 -13v-14l-41 -25l-23 -28l-20 -82l-35 -15l-35 -63 l-65 -33l-137 -41l-133 15l-25 14h-66l-86 86v27l-55 69l23 64l47 39l26 53l45 4h19l55 -39l27 -4l18 -41l49 -49l47 24l39 -4l29 -35l70 35l100 125l-10 96l-13 13l-40 12l-119 -29l-103 -6l-20 -4l-33 10l-33 21l-59 24l-47 33l-29 8l-88 86l-12 33l-35 29zM319 940l29 -6 l41 -25v-20l-51 -74v-41l80 -127l24 -4l45 -41l70 19l47 -39l72 39l29 43l36 4l17 16l14 53l27 21l4 16l-21 37v59l-69 129l-88 54l-39 8l-70 -23l-63 35l-27 -24l-8 -29l-29 -29z" />
<glyph unicode=":" d="M324 94v37h10l8 8l-8 4l33 66l14 12l25 4l43 74h8l10 -8l98 63h17l20 -18l6 6l8 -27l31 -8v-8l43 -20l35 -33l16 -64l21 -18l-12 -88l-9 -43l-43 -66l-18 -16l-64 -8l-43 -35l-47 8l-34 18l-9 -12l-26 29l-8 -8l-39 37v18l-29 14l-21 29l-26 27l8 8zM360 578v120l21 39 l25 25l-13 8l56 45l43 8l28 8l37 21l98 -29l50 -53l20 -45l25 -27l-9 -133l-16 -35h-20l-25 -55l-8 12l-13 -12l-51 -18l-26 -6l-9 -9v-10l-28 19h-19v6l-88 10v8l-8 12l-6 27h-18z" />
<glyph unicode=";" d="M295 76l29 133l24 16v21l82 53l19 25l-29 36l29 25h26l33 -61l29 30l16 -18l12 6v-18l4 -9v9l4 8l9 -8l-13 -9l29 -24h29l16 -19h37v-8l16 -10v-8l9 -13l10 -57l26 -45l-26 -98l10 -35h-10l-19 -55l-16 -21l6 -6h-14l-21 -39l8 -43l-61 -59l10 -13l-63 -61v-16l-25 -9 l-12 -28l-8 8l-25 -27l-117 -6l-34 53l6 99l18 32l29 19l16 18v33h13v57l-29 46l-62 6v71zM303 635l21 45l-9 12l27 25v24h6l37 58l53 45l88 -13l19 21l71 -47v-6l27 -11l43 -47l29 -69l-10 -43l-9 -8v-29h-16l-8 -43l-21 -29v-33l-82 9l-24 -29l20 -25l-12 -18h-8l-8 -10 l-29 43h-59l-101 63l-33 58z" />
<glyph unicode="&#x3c;" d="M209 373l29 98l81 70l35 84l74 6l35 63l55 64l55 14v47l13 8v25l32 10l50 -10l12 74l100 -21l68 -49l31 -84l-68 -31v-63l-61 6l-82 -37v-51l-76 -18l-74 -29l-82 -86l8 -70l48 -24l100 -78l88 -27l31 -74l94 -10l10 -37l33 -67l-33 -88l-43 -21h-43l-143 74l-68 41 l-10 45l-45 25l-25 41l-119 77h-36z" />
<glyph unicode="=" d="M78 272l18 43l64 45l-13 9h13l24 28l9 -12h28v-4l98 -12l37 28h45l52 -28l82 12l6 4v21l63 -9v-12l19 -16h59l31 37l45 18l14 -18h29v-9l43 -12h10l6 -4l37 33l72 -8l26 -46h37v-6l19 -12l26 -51l-10 -90l-63 -19l-9 -6l-168 -37l-45 37l-127 -18l13 6h-146l-63 -6v6 l-70 18l-8 -6h-10l-15 14l-37 -14l-126 6l-54 19l-8 -11v19l-29 16zM123 582l8 65l53 33l54 12l28 25l53 -8l25 -29l37 18l90 -6l115 -12l8 -8l18 20l70 6l12 11v-11h25l72 11l88 28l18 -20h72l63 -45h6l13 8l16 -25v-26l-10 -27v-24l-53 -39h-17l-18 -39l-64 -13v9l-33 18 l-28 -14v-4h-29v4l-102 20h-19l-26 -24l-82 4l-8 14l-17 -27l-26 27l-56 -14l-20 20h-53l-25 19l-70 -19l-45 -6l-45 43h-82l8 8v13l-8 4h-16zM815 414l12 10v8l-12 10v15l12 -6h17v-27l-8 -10h-21z" />
<glyph unicode="&#x3e;" d="M287 96l67 31v63l64 -6l78 37l4 51l73 19l74 28l82 87l-8 69l-45 25l-103 78l-86 26l-32 74l-95 10l-10 37l-31 68l33 88l41 20h45l144 -74l65 -41l12 -45l46 -24l24 -41l119 -78h35l75 -102l-32 -99l-78 -69l-37 -84l-74 -6l-32 -64l-58 -63l-55 -15l2 -47l-12 -8v-25 l-33 -10l-53 10l-9 -73l-102 20l-66 49z" />
<glyph unicode="?" d="M160 852h8l10 35l19 108l59 70v20l82 52l47 18l4 8l39 13l82 12l33 20l69 -8l64 -12l18 -12l90 -13l19 -26h51l72 -107l28 -72l27 -18l-12 -88l12 -8h6l-61 -103l-54 -49l-96 -96l-31 -14h-24l-53 -33l-17 -19l8 -63l17 -25v-45l-33 -69l-127 8l-6 6h-18l-25 43l-14 12 l18 21v33l-18 16l-19 29v18h12l7 35l18 29h21l8 18h24l54 88h28l19 25l34 20l54 8l32 51v56l-4 8l-8 70l-31 45l-43 16v12l-28 25l-160 10l-37 10l-45 -45h-12l-31 -28l64 -27l43 -53l-7 -25l-12 -10l19 -21l-19 -12l12 -14h-12l-6 -25l-8 8l-31 -26h-43l-35 -25h-16l-27 25 l-43 -21l-57 39zM377 41v63l8 -10l25 53l114 99l29 37h8l17 -19h28l82 -43l6 4l13 -16l10 8l4 -8l-8 -8l32 -37l13 -25v-8l18 -20l-10 -43l-25 -43l-8 -11h-31v11h-26l-33 -27l-74 -12l-16 -6h-29l-57 34l-33 -10z" />
<glyph unicode="A" d="M33 25l16 36v54l29 16h24l33 12l21 17l10 -8l8 8l43 -8l64 81v54l18 51l8 35l8 20l37 51l-8 11l27 28v78l6 35l29 37l-9 26h9l10 52l6 -6h12l25 45v77l20 43l8 39l25 43l10 39l15 25l-7 8l27 10h25v-10l12 -8h6l18 18l-18 33l-6 -6l-29 33l8 45v18l27 10l64 -18l26 -25 v-39l25 -69v-37l18 -27l21 -96l-9 -12l33 -62l13 -45l24 -123l33 -36l-8 -9l28 -53l-8 -29l19 -16v-8l-11 -8l19 -19v-88l26 -37v-45l17 -8l20 -82l45 -45h78l29 -16l45 -17l16 -45l-10 -28v-15h-18l-7 -10l-71 -45l-82 12h-82l-25 4h-28l-17 -16v12l-123 4l-73 66v16l45 27 l-8 8l26 18v21l82 25l6 61l-16 20l-17 33h-16l-20 25l-260 -15l-15 -18l6 -82l47 -16v-8l5 -9h20v-28l25 -35h12l8 8l25 -51l-17 -27l8 -10h-36l-7 -18l-63 -27l-168 12l-8 4h-29l-45 -43l-24 19l-13 -13l-57 37h-39zM492 463h20l53 -19l90 39l17 -20l10 8h8l25 37l-6 61 l-9 9v36l-53 33v21l-8 24l25 45h8l-33 119l-12 8v19l20 69l-20 27l-9 -8l-6 -19l6 -6l-36 -37l-17 -20l8 -115l-24 -45h-19l-8 -43v-72l-18 -18v-88h-12v-45z" />
<glyph unicode="B" d="M119 1094v45l39 32l51 21h16l8 -8l13 8l24 10v8l37 -8l17 -18l36 8l54 -8l43 26l57 -18l68 10v-10h39l14 18l102 -8l33 -10l45 -29h72v-6l14 -12v-6l21 -19l12 8v11l49 -37l-6 -8l27 -17v-10l-13 -10l21 -19v-26l43 -45l26 -49l-8 -74v-29h-8l-45 -104l-37 -19l-6 -24 v-29l14 -16l-8 -11l90 -90v-78l21 -28l24 -97l-8 -28l-29 -62v-69l-26 -29l-51 -16l-21 -37h-6l-12 -8v-25l-78 -39h-64l-8 -6h-16v6l-11 8l-18 -14l-33 6l-47 -24l-18 18l-70 6l-57 8l-131 11l-8 -11h-160l-37 -8l-8 8l-19 -14l-51 57l33 45h18l19 21l53 -8h25v-13l20 -14 l61 27l25 24l-4 8h4l21 58l-9 51l-12 43l21 20v203l-21 101l-4 53l16 16v53l9 13l-21 14l-16 82l16 80l-25 70l21 20v14l-21 19l-69 -45l-27 12l-18 14l-64 -6v6l-24 11zM467 496l8 -17l12 -8l-12 -70l21 -82v-135l18 -53h133l158 8l82 8l8 13v33l27 45h12l24 10l19 43v125 l-29 28l-8 -10l-18 17v8l-64 63h-14l-56 27h-71l-62 16l-20 13l-25 -17l-53 -12l-43 29l-18 -13v-24l-29 -19l20 -18l-12 -8h-8zM487 737l9 -18l4 -37l20 -14l62 8l20 -21l25 37h53l125 -10l26 29l37 8v18l33 35l12 35v63l-26 52l-10 12l10 8l-6 8l-9 -12l5 -4h-19l-35 70 l-35 -9l-8 -8l-43 8v29l-47 -12l-69 -8l-64 34l-18 -14l-9 -45h-10v-18l-20 -43l-4 -156h-9v-25z" />
<glyph unicode="C" d="M160 436l10 51l8 58l10 8l-28 25l10 241l8 37l19 27v26l-9 9l25 28l8 -12l27 45v20l-6 5l45 38l8 64l61 43l25 43h57l97 35h43l12 12h78l18 -27l19 -10h24l29 -26h24v-9l45 -18l45 43h29l8 10l25 19l27 -19l18 -72h-8l-10 -49l-15 -20l8 -45l-20 -17l12 -28h-12l-25 -45 v-17l9 -8l61 -119l-8 -90l-10 -6v-27h-15l-45 27l-29 25l-28 18h-17l17 21l-33 69v8l16 17l-34 45l8 57l-25 45l-8 -12v12l-18 13l-13 -5l-8 5l-4 -5v-20h-31l11 25l-25 57l-33 6l-69 18h-9l-16 -18l-53 14l-29 -32v-33l-51 -25l-10 8l-62 -65l-18 -33v-37l-43 -63v-158 l-11 -10v-29l11 -8l8 -27l-19 -43l35 -43l19 -47l8 -82l18 -51l54 -55v-15l28 -20l17 -18v-25l53 -18l96 8l76 61l49 12l64 70l-11 45h11l18 19l8 -13l39 47l-14 54l-4 8l32 37l46 8h16l27 -25h18v-39l20 -24l-8 -39l-20 -62l20 -16l-20 -45l8 -10l-61 -27l-17 -33v-12l8 -6 l-82 -90l-16 -27l-10 -43h-19l-14 -18l-39 18l-16 -18l12 -10l-78 -11h-78l-16 21l-45 -10h-25v10l-45 8h-28v37l-43 33l-56 57l-45 16v62l-18 16v27l-6 10h-29v18l-25 27l-18 51l8 47z" />
<glyph unicode="D" d="M61 45l19 35v26l67 37h91l69 -12h29l18 29l-8 88l19 18v115l-11 102l11 49l8 13v8l-8 8v131l16 119v98l29 25v12l-21 6l-16 19l-27 45v33h-39l-24 -15l-25 15l-111 12l-32 6l-17 18l6 45l27 54l37 8l8 10l37 -18l51 28l64 -10l26 19v-9l35 -20h154l10 10v-10l68 -8 l10 -27l28 10l43 -18l9 8v-8h26l17 18l26 -10v-8l121 -39l12 -29h31l-10 -14l43 -18l39 -97l4 -43l29 -53l28 -29h8l17 -34v-115l20 -35l-20 -47l8 -141h-8v-35l-8 6l-9 -53v-19h-8l-18 -67l-10 -29l-9 -10v-15l-45 -45l9 -12l-27 -24l10 -9h-16l-13 -12v-25l-45 -18 l-94 -88h-45l-20 -18h-95l-20 -15h-18l-19 15l-49 -27l-47 37l-35 -21h-117l-35 -4l-36 -12l-7 -8v8l-12 12h-26l8 4h-51l-9 -4l-63 4v11l-25 10zM487 870h19l8 -6v-8l10 -37l-18 -18v-76l18 -33l-18 -33h8l10 -81l-18 -17h-6l6 -8l-6 -223l24 -125l-18 -35h63l17 -18l10 8 l63 -8l25 -9l53 17l43 45h19v16l24 21l13 24h26l39 25v28l-20 29v25l20 20l4 8h21l-13 9v10l21 16l-8 8l26 27l6 82l19 25l10 81l-35 27v19l6 6v57l-6 76l-8 -4l-18 16l-37 90l-70 70l-53 8l-29 25l-35 -7v-8l-43 -10l-28 25h-17l-28 12l-17 -82h-12l-4 25l-10 12v18l10 8 l4 -8l-4 27l-21 -19l-8 -90zM543 471l14 16v45h12v21l70 -8l8 -13l12 -61h-20l-8 -8l-62 -8l-16 16h-10z" />
<glyph unicode="E" d="M66 41l18 70l43 32l63 -12l117 12l17 21l-9 12l35 49v160l8 57l11 9v6l-11 10l-18 33l10 387l-10 125l-8 24h-70l-10 -6h-72l10 6l-71 13h-29l-16 49l28 47l45 26h168l9 9l135 -35l45 10h139l29 16h43l18 -26l37 -8h27l18 18l16 -18l43 26l74 -8l60 -29l12 -28l18 -86 v-78l15 -21v-108l20 -35l-35 -33l-30 4l-45 82l-7 64l-18 47l10 6v18l-10 9l-20 37l-33 26h-19l-6 25l-29 26l-8 -8l-45 37l6 8h-34l-17 -20l-90 -4l-18 -29h-76l-12 -10v-6h-19v6h-35l-37 -19v-231l-16 -25l16 -55l29 -45l53 -8v-8h54l24 45h33l33 28v62h10l14 32v21l29 6 h16l37 -35l6 8v-43l13 -63l6 -61l-25 -43v-107l6 -39l13 -43v-26l-101 -46l-24 64v106l-29 35l-4 -8l-21 21l-159 4l-37 -43l18 -52l6 -81l-16 -21v-106l37 -46l-8 -51l-13 -6l37 -37l99 -8l24 -20l66 20l43 8h26v-8l74 -20l16 28l43 25v26h11l20 43l13 21l-5 53l43 47v52 l19 18v27h49v6l6 10l8 -10l-14 -6l14 -9h25l18 -61v-21h-8l-29 -69l9 -172l-15 -19v-32l-14 8l-4 -43l-12 -29l-13 -18l-39 18h-63l-8 8l-54 -26l-34 -6l-27 18l-82 -12h-221l-37 -6h-61l-54 -13l-28 31l-19 -18l-63 6h-33l-53 -6l-17 32h-18z" />
<glyph unicode="F" d="M90 1106h8l21 43l24 27h27l35 8l160 8l81 10l17 -18l61 28l66 -20h106l19 -8h26l-8 8l12 4l5 -4l-9 -8l17 -17l26 25v-8h109l59 -27l11 10l61 -100v-18l-8 -7l8 -8l10 -30h-10l-8 -25v-27l18 -18l-10 -8l29 -56l-13 -51l-6 -8l6 -10l37 -64l-24 -78l-29 -26l-72 35v69 l-8 37l-18 19v26l37 51l-19 13l-35 35v61l-28 25h-50l-20 57h-27l-43 -37l-26 18l-101 7l-8 -33l-45 -25l-18 8l-25 35v-55l6 -8v-10l-16 -15l-16 -28l26 -54l-26 -71l8 -68h-8l-13 -14l29 -19l16 -14l13 8v-8l6 -10l10 10l29 8l14 -18l18 18l-8 6h8l25 58l63 18v59l13 37 l6 6l-19 39l19 37h20l-8 4l12 11l5 -9l-9 -6l25 -28v-29l-16 -19l43 -51v-51l-19 -31v-250l10 -43l9 -96h-9l-10 6l-16 -16h-43v16l-13 13h-16v34l-8 9h8l10 10v6l-18 10l8 27l10 53l-28 37l-29 8l-14 -16h-43l-45 -19l-29 6h-8l-8 13l-29 -74l16 -16l-16 -19l16 -26 l-4 -107l-12 -12l16 -15v-100l45 -49l178 -12l-2 8l7 4h8l-13 -12l27 -17l21 -37l-35 -69h-197l-10 -10h-8l-21 18l-121 -8h-215l-20 61l20 27l-8 26l70 21v-12l63 -9l27 21v-12l8 -9l62 54v73l20 25l8 33v28l-20 19l-8 133l-7 45l15 117l-15 35v202l-28 48l10 81l-21 35 h-24l-100 -10l-9 -8l-16 18h-27z" />
<glyph unicode="G" d="M178 604l10 260l56 66l-11 8l9 8l6 -12l28 90l48 61h14l35 82l28 9l9 8l90 43l45 -6h24l9 18l90 -27h57l12 -28h82l8 8l29 20h8l8 -10l11 10l43 -28l20 -45l-12 -78l-25 -82l9 -96h-9v-43l9 -13v-45l-35 -32l-43 18h-29v6l8 8l-26 29l8 8v21l-25 4l-26 45v45l-21 37 l-51 45h-19l-45 45h-10l-6 -12v12l-37 6h-16l-19 -33l-18 15h-53l-74 -45l-25 -25l11 -8h-11l-26 -45v-25l-19 -31l13 -69l-48 -64v-45l15 -14l-15 -19l11 -36l4 -62v-74l-4 -4l4 -12l33 -51v-117l49 -55l8 10v-25l20 -20l21 -39l8 10l6 -8l-10 -6l29 -18l32 18v-10l39 -17 l72 17l49 35h21l43 47h14l4 6v18l8 -8l21 45l-8 8l26 43v56l6 10v24l-45 19l-12 -19h-20v11l-72 8h-55l12 8v12l-12 4h-17l8 45l9 13l26 24v9l-6 12l70 33l18 -19h260l121 -8h18l21 -18l-12 -9l12 -8l18 -29l-10 -61l-143 -16l-53 -11v-51l-29 -82l20 -63l-8 -117l17 -16 l-9 -35v-27l-20 -16l12 -12h-18l-11 -9h-45l-45 21l-6 24l-8 9l-74 -60l-35 -18h-196v8l-19 16l-8 -6v6l-26 9l-86 90v16l-48 45l-18 72l-37 63l-8 43l-18 27v106l-7 13l17 16l-10 88h-17z" />
<glyph unicode="H" d="M61 1094l11 45l43 37h53l10 -9l19 25v-8l90 -17l12 17l129 -8h82l6 -9h19l-11 -10l29 -18l8 -9h8l9 19h20l8 8v-8l6 -10l56 45l69 -8l8 -9l13 9h229l45 -9l19 17l39 -17l12 -43l12 -14l8 -76l-71 -30l-39 12l-4 -12l-47 -5l26 -53l-33 -45l-10 -176l-10 -47l-8 -10 l18 -25l-10 -39l-8 -43l-17 -35l25 -26l-8 -90l-8 -9l16 -20v-8l-8 -6l18 -29l-18 -19v-32l-8 -39l8 -6l8 -136l45 -8h29l43 29l51 -47l-8 -55l-37 -33l-33 8l-12 10l-4 -10l-54 -18v10l-268 8l-31 25v36l-4 9l43 28h8l11 -10l71 55v-16l7 -12h20l16 45l-8 28v25l17 20 l-17 86l17 19l-17 29l17 59l-9 74l-8 -13v21l-28 8h-25l-8 37l-39 25l-6 -9l-70 -8l-31 -45l-26 29l12 8l-63 16l-64 -8h-18l-33 -45l-19 16l9 13v8l-21 16l-24 -16v-53l-9 -152l-10 -10h10v-8h-10l-8 -27v-45l18 -37v-106l25 -17l20 -18l43 18l35 -10l13 10v8l32 -26v-64 l-53 -24l-82 8h-24v10h-54l-82 -18h-61l-8 -10l-64 34l-6 9v73l78 8l53 -26l45 8l-10 100l-6 17v28h6v25l-14 18l14 72l-14 19l8 77l6 19v24l-14 21l-13 -8v78l37 26l-16 29l6 10l-35 16l21 19v47l8 4v21l-8 8l-29 43l37 43l-8 39l-29 26l29 70l-37 37l-51 33h-48l-10 12 h-18zM377 768l12 -43l64 -14l57 -19l31 -6l20 25h82l12 -25h58l63 51l8 -8l17 21v43l-25 47l25 49l-10 12l-25 17l-8 34l26 52l-47 20l-18 -8l-6 -12l-90 38l-37 19v20l-33 13v-60h-29l-14 -18l-14 8l-43 10l-25 -30h-47v-13l8 -30l-12 -60l12 -18l-8 -27zM410 801v26l10 -8 v-18h-10zM410 926v45l18 20v-20h-8l-10 -10l18 -27v-16z" />
<glyph unicode="I" d="M160 68l10 26v6l78 31l43 8h33l69 25h33l18 -21l11 15l16 -15l12 -4l17 25l-13 12h13l8 33v63l-8 82h8v27l-8 4l16 21v69l10 12v13l-18 20l18 45l-10 37v229l16 56l-16 14l10 47l6 10l-16 19v43l-80 10h-16l-19 -18l9 -8h-29v8l-90 8l-58 10l-38 35v72h10l8 8l53 26 l144 9l-9 -9l107 -8l24 17h101l61 -9l17 17l57 12l25 -20l51 8l127 -17v-8l20 -18l-12 -64l-33 -32h-28l-74 -29l-17 16l-8 -6l-18 19l-43 -19v-10h-21l-26 29l-43 -19h-9v-39l19 -57l-10 -47l-9 -10l19 -25l-19 -21l19 -380l16 -144l-8 -8l8 -8l31 -127l51 12h25v-12l82 -6 l96 -15l63 -67l-51 -78l-45 -31h-74l-143 -8v8h-125l-14 -8h-29l-16 21l-37 -13v-8h-25l4 8l-24 19l-70 -19l-26 13l-56 -21l-20 8l-33 31h-70l-10 59z" />
<glyph unicode="J" d="M152 276v15h10l14 20v70h10l9 39l43 43l65 8l51 12v-12l11 -8l8 8l37 -16l8 -11l26 -51l-8 -26l19 -19l-19 -18l8 -11l-26 -32h-8l-13 4l-12 -15l-45 15h-37l-20 -15v-55l12 -8l24 -70l46 -45h8l24 -28l13 10l77 8l13 10l18 -28h8l6 10l64 8l55 39l-12 4l57 74v8l-10 8 h10l15 66l-25 24l10 27l15 63v9l-4 -9l-11 9l6 10l9 -10l10 10l-19 35l9 71l-15 19v33l-10 12l16 168l-16 24l-18 119l18 17l-8 8l8 8l-27 65l-45 -8v8l-45 5l-8 -5l-29 -8h-6l-18 13l-8 -5l-56 50l-8 61l27 20v19l16 18h29l10 9l43 8h8l21 -17l24 25h45l9 10l28 -10h25v-8 l33 -8l14 -9l33 25l100 -8l76 -17l31 9l51 -19l26 -47l-18 -16l10 -9l-24 -69h-19l-10 -12l-29 -13l-49 8l-12 -8l-33 -30l-27 18h-18l-20 -109v-145l20 -20l-25 -72v-72l-20 -74l20 -43l-20 -18l8 -6l-8 -117v-143h-18l-52 -54v-36l-45 -25l-28 -35h-17l-18 -28l-10 10 l-27 -25h-6l-12 4l-9 -4v-20l-151 8l-53 16l-89 54h-24l6 12l-37 16l-16 53l-35 54l6 10l-6 6z" />
<glyph unicode="K" d="M57 1110l11 29l63 28l57 -18l111 27l35 -9h8l10 9l33 -9h21l8 9l35 16v10h38v-10h-12l-8 -8l72 -27l6 10l47 -61v-21l-10 9l-17 -27l-65 14l-103 -47l-30 -145v-256l14 -37l25 -51l18 16v29l43 6l29 51l4 21l12 24l27 37l34 21l9 8v24l73 58l9 16v27h8l8 6v20h18l27 43 l-16 39l16 33v18l-16 19h-62l-12 24l20 45l43 37l101 9l32 16l46 -16l88 16l100 -16l-10 -9l10 -10v-96l-18 -45l-35 51l-66 -6v-19l-51 -18h-8l-19 -20v-5l9 -8l-54 -57v-25l-43 -26h-18l-53 -64l-29 -26l10 -11l-26 -24l8 -8l-51 -82l-13 -54l-6 -10l45 -59l8 8v-8l35 -19 l90 -178l88 -100v-27l27 -16l45 -45l-10 -8l35 -9l90 -28l10 -9v-106l-18 -33l-19 15l-133 10l-8 8l-29 -29l-96 21h-72l-88 33l-72 -33h-10l-8 8l-25 -29l-45 11l-57 28h-4l-21 -18l-18 18l-35 -18h-119l-88 8l-24 10l-8 51v27l43 18l20 21l51 -12h19l32 37l13 135l18 24 l-10 70l-21 20l21 25l-8 37l18 20l-10 107l-8 43l24 45l-6 80l-10 69l16 17l-16 198l-29 25l-94 -18h-20v12l-35 6zM385 205l12 -10l17 -68l10 4h96l25 12l76 -37v-18h14l12 -8l43 47l8 4l64 -4l18 25l6 24l-69 66l-62 49l-34 20l-39 37v25l10 28l10 70l-20 55h-9l-28 -55 l-6 12l-52 -28l-12 -29l-18 -25l-8 9l-25 -43l-27 -13v-24l9 -39v-70z" />
<glyph unicode="L" d="M0 45h10l8 61l7 25h223l28 12l11 9l16 -21l45 12h19l14 17l-8 98l-6 8l14 21l-8 51v63l8 25v197l20 36l-20 66l29 12l-9 13v18l19 14l-19 29l-8 98l-12 25v27l12 -9l33 64v26l-25 19l-34 6l-37 -18l-19 18l-106 -6l-35 -19v7l-18 12h-25v6h-39l-51 -25l-27 39l8 4v21 l-18 18l18 15l-8 10h8l7 27l28 16v-8l29 -8l18 -9h27l4 9l66 16l159 -8l17 18l65 -10l45 -16l4 8v-8l58 -19h16l43 35l154 -16l53 -27v-19l8 -6v-39l-37 -18l-14 -25l-39 7l-4 -7v-8l-57 27h-115l-8 6h-10v-184l10 -191l8 -6l8 -108l17 -46v-32h-9l-16 -74l8 -6l-16 -19 l-10 -63l-9 -8l27 -39l-8 -70v-26l33 -52h127l106 -12l29 21h18l31 36l45 25l12 160v47l-20 24l8 11v28l27 25v45l43 25l47 12l34 -37v-27l21 -18l-12 -45v-8l-9 -11l21 -18v-59l8 -13l-20 -16l12 -72v-33l-12 9v-54l12 -36l8 -64l-72 -106h-141l-29 -15l-114 15h-29l-4 -11 h-82l-53 21l-21 -21h-149v11l-19 18l-8 -8l-37 -10l-8 -11l-18 21l-27 -21l-143 -4l-33 25l-74 -21h-28l-15 39l8 6v9z" />
<glyph unicode="M" d="M29 1106l24 61h129l27 -20l33 20v4l10 13l47 -27h78l8 -35l29 -8l43 -57l-8 -17v-96l26 -90l-18 -39l6 -4l29 -66v-61l8 -72l26 -43v-45l19 -18l20 -35l27 -37l35 58v-13l8 -8l37 45l8 45l18 17l-26 45l16 71h10v107l43 53h21v-72l-21 -24l9 -45l-17 -19l17 -18h-9 l-16 -45v-8l-20 -19l12 -10l-19 -16l35 -37l-16 -17l8 -8l-20 -20l12 -4l-19 -21l19 -43l-12 -27l-17 -45l10 -10v-27h-10l-16 -63l8 -63v-15l25 -31l-7 -8v-4l52 -12l18 16h63l9 -4h8l10 25h19v106l6 8l-19 37v70l19 53l-19 19l19 53l-6 43l18 20l-12 125l-6 8h18v113 l14 21l-8 188l-37 61h-6l-10 -16h-8l-21 -100v-19l-4 11l-10 -43l-64 32h-16l-8 11l24 71h9l12 45v45l6 -8l8 8v17h10l29 32l86 13l72 -17l18 17h21l43 -45l43 18h8l12 -10v-19l-45 -6l-74 -37l-26 -53l-19 -82v-24l-14 -21l25 -14l18 -100l16 -46v-26h-8l-18 -17l10 -71 l8 -27v-80l21 -45l-13 -78l-8 -82v-63l8 -35l17 -28v-46l26 -12l64 4v-4l27 -12l30 -66h8v-12l-47 -31l9 -6l-117 6l-17 -14l-34 -18h-19v8l-37 10l-32 14l-91 -32h-24l-57 43v20l-7 8l-26 -28l-13 8l-16 -25l-16 -18h-62l8 10v8l-53 25l-28 -8l-29 -35h-43l-150 -8l-10 -11 h-27l-45 37l-49 17l-65 -11v11l-17 20l-8 59l8 -8l35 51l8 -8l6 8v13h21l16 -21l11 8l34 21l9 88l12 10l-12 8l-15 54v43l15 30v91l12 120v19l-12 8l-9 55l-6 8l15 17v26l28 37l-16 29l16 68v39l-8 8l-20 35v8l20 18l-20 45l-25 25l-8 -6v6h-72zM279 639l8 -61l28 -29 l-12 -8l-4 -49l43 -21v-18l-27 -25l17 -117l10 -45l6 8l29 -18v-35l16 -28l-16 -15l29 -31h24l33 13l20 -21l9 -43h18l-10 8v43l-25 46l8 12l9 51l-17 18v21l-12 61l-6 88l-64 80l37 17l8 63l-24 80l-8 10l14 72l-6 -8l-8 8v6l8 10h6l-6 9v36l-21 21v6l13 8l8 43l-8 13v16 h-21l-61 53h-21v-61l-24 -29v-131l8 -8v-39zM324 766v14h14v-14h-14zM672 104l8 -8l18 19h-10z" />
<glyph unicode="N" d="M20 1085l64 37l47 45v-12l4 -8l21 33h37l8 12v-12l114 -25l56 12h51l65 -39l5 9l57 -43l24 8v-37l9 -6v-19l-9 9l-16 -17l-8 8l-27 -36l15 -46l12 11v-19l51 -49l12 -39h-12v-63l27 -45l12 -76l51 -76v-6l19 -10l-9 -62v-24l9 -13l-9 -20v-25l15 -8l18 -24h25l20 -21h27 l31 -8l12 -16l31 16l-11 37l-8 45l-20 24l8 62l-8 8h-4l24 21l-20 18l8 63v86l-8 29v25l8 12l-8 8l-4 43l-21 25l8 90l-26 27h-68l-29 16l-36 -4h-25l-21 43v51h9l12 12v15l-8 -4l-8 8l4 6l12 -10l25 30h69l25 13v-4h39l108 4h185l12 -4h26v-9l7 -12h18v-18l10 -9l8 9v18 l-61 -123h-8l-21 -16v-21l-43 9h-55l-33 -17v-61l33 -56l-33 -34l-12 -45l18 -17l-26 -90l20 -135l-20 -19v-112h-17l-8 -8v-21l25 -18l-8 -6l16 -19v-82l-8 -6l26 -37v-35l13 -28l14 -78l-14 -19l6 -8v-28l-37 -54h-16l-9 -8h-34l-64 27l-10 -10v10l-8 8h-19l-20 88v10 l-58 8l-28 7l-8 57l-9 -10l-8 35v20l17 16l26 -8l43 37l-43 45l-35 -12l-8 -27h-29v39l-18 16v52l-6 10h-12v16l12 -8l6 8l39 13l25 -29l-9 -35l9 -10l36 29v32l-18 37l-10 8h-17l-8 37l-35 35l-30 16l-9 39l-16 52l8 10l-28 47l12 6l-45 45l-45 -65l-19 38h-6l-12 7 l-25 -62v-8l9 -8h-9v-35l19 -18v-48l-19 -16l19 -90l-10 -43v-16l16 -19l-6 -10l18 -17v-28l-12 -8l12 -9v-36l-18 -17l18 -90l103 -20h45l18 -7v7h27v-7h-9l-6 -8l6 -10v-106l-45 -29l-61 12h-188l10 8h-109l-51 -20l-51 29l-31 -9l-43 19v35l29 16v45l96 45l-8 12h27 l20 15v71l4 29v25l-4 8l-12 45l24 29v53l-12 16h4v90l-16 62l24 10l19 16l-31 72l4 96l8 11v-11l37 -14l19 14l-25 43l-12 -4l-6 43l-21 19l-4 106l-66 17v12l-36 4h-27v12l-51 27v18zM406 754l34 -25l19 25l28 -25v62l-28 8l-19 -25h-34v-20zM745 602l46 135l6 -8l18 -133 h-10l-8 -39l-19 -14zM754 926h4l14 -13v-8l-14 -4z" />
<glyph unicode="O" d="M92 526v27h12l7 133l28 115l54 108h8l12 25v27h12l21 18v25l24 38v25l58 43l6 14l26 -18l103 61l33 25l43 -8h30v-8l13 -19h39l34 -18h17v-15l57 -18l25 4l69 -49l21 -19l69 -51l27 -102l43 -62v-16l-6 -10l43 -27l8 -106l19 -25v-53l-19 -29l19 -16v-62l-27 -20l-16 -37 v-25l8 -8v-39l-29 -43l-6 -63l-47 -53l-4 10l-45 -107l-33 -28l-4 10l-8 -10v-17h-17l-14 -8v-20l-6 12l-19 -27l-8 6l-35 -45l8 -4l-61 -12l-20 -27h-17l-8 -8l-66 -10h-77l-62 18l-63 54h-37l-43 34l-21 21l13 8v16l-37 9l-21 18l-32 82l8 6l-54 57l-16 58v28l-20 19 l20 35l-20 47l-7 43zM264 705l19 -144l8 -160l16 -63h8l56 -51l-11 -11l56 -71l47 -35l-14 -10l38 -33l37 -21l-12 -8h18l9 8l43 -18l20 10l10 8h9l26 -8l62 33l20 39h8l-8 6l43 45v55l47 105v63l29 43v39l-12 43v64h8l-8 35l12 37l-25 20v76l-24 10l-45 98l-9 9l9 8l-37 26 h-27l-18 19l12 8l-29 45h-28l-54 18l-4 -8h-45l-75 -18h-33l-70 -55v-43l-39 -17l8 -12l-16 -19l-29 -59z" />
<glyph unicode="P" d="M82 29l8 24v31l45 25l-8 10h16l11 -10l6 10l30 16l52 -8l37 35l45 -19v-8h45l8 45v21h8l8 8v24h8v250l13 340l14 33l-8 45l-6 12v78l14 29v14l-35 19l-8 10l-16 -16l-19 16l-18 -29l-45 13v6l-8 10l-19 -16l-63 6l-37 20l-25 43v19l55 32l-12 13l82 -13l8 -8l35 21h117 l108 -13l50 -24l28 10l45 27l29 -13l33 -8l178 -24l39 -37l43 18l2 -2q2 -4 4 -6l8 -10l8 -8l21 -37l45 -19l-10 -6l30 -53l-12 -10l25 -27l32 -55l15 -80l-27 -78l-24 -47v-27l-39 -33l-7 9l-20 -27h-16l-17 -43l-18 -20h-39l-33 -19l8 -6l-90 -20h-82l-57 -17h-55l-9 -8 l-38 16l-33 -8l-10 -35v-30l26 -25l-26 -27v-6l10 -12h-10l-19 -33l12 -12l-12 -8l29 -35l8 -90l45 -43l70 8l20 -29l45 11l25 18l26 -18h19l12 -68l-20 -21v-24l-25 -37l-37 4l-82 21l-59 -9l-19 -16l-145 4l-8 12l-6 -12l-37 -4l-21 16l-96 -12l-18 21l-21 -21l-49 12 l-45 21h-18l-9 33h-18zM535 901l10 -78v-151l28 -45l25 -9h152l34 9l35 -19l53 56h19l10 -13l47 27v12l6 43l45 53v17h-8l-10 45v37l-18 16l-33 45l-12 29l-27 -19l-6 9l-66 16l-16 27l-53 26l-70 -26l-29 45l-26 -19l-80 -6v-29l-10 -53v-45z" />
<glyph unicode="Q" d="M104 475l11 180l16 82l45 86l-8 35v12l18 17l-10 8v18h10l27 35l8 19h8l9 24l69 74l66 16l-8 13l24 4h21l26 57l70 8l12 8l146 -8l38 -37l-6 -8l78 -37l37 -32l51 -29l19 -29l37 -69l26 -21l27 -31v-100l37 -61l12 -80l-4 -99l18 -16l-18 -63v-66l-21 -16v-70l-24 -74 l-19 -16v-8l11 -11h-11l-26 -96v-26h-37l-53 -70l-9 6l-16 -18l8 -43l37 -27l25 6h8l12 37v27l107 18l32 -45l27 -61l-16 -45v-54h-11l-6 -16l-90 -82l-100 8l-33 10l-12 11l-25 32l-8 -6l-21 19l-4 -13v13l-20 16l-10 -8l-27 43v18l-33 25h-30v8l-15 21h-100l-70 18v18 l-47 9l-35 37h-26l-52 61v16l-47 43v31l-34 27l-9 32l-24 31v25l6 8l-25 37v24l4 9l-16 18l12 27l-20 16l8 57zM264 360l31 -53l24 -53h54l16 -21l66 13l32 33l13 20l43 16l18 -16h25l20 8l15 -28l38 -15v-10l37 -21v-8l70 -35l33 43v58l20 16l43 125l27 35h-8l-7 47l-12 25 l19 39l-19 43l-6 8l18 112l-47 47h-16l-45 27v62l-25 24h-20l-10 57h-9l-6 25l-32 21l-33 -21l-25 29v8h-20l-8 -8h-35l-64 8l-37 -43l-14 -37h-10l-45 -45v-25l12 -12l-66 -59v-45l-16 -37h-8l8 -8v-11l-27 -34l-12 -72l31 -27v-26l-12 -9h-7l-12 -63l31 -61zM561 57h25v11 l28 32l-18 19h-10l-25 -25v-37z" />
<glyph unicode="R" d="M29 1081l16 74l111 16h49l12 -8h16l11 8l90 9l6 8l127 -8v-9h61l29 9h16l33 -35h19l18 26l64 -16l71 -10l37 -19h45l29 -28l8 8l8 -8l-12 -4l70 -103v-14l12 -10l24 -144l-18 -43l14 -26h-14l-25 -62l-38 -20l12 -8h-25l-12 -29l-70 -53l-8 10l-31 -35v-27l19 -16v-27 l12 -12l16 -24l9 6l8 -51l18 -52l-6 -55l6 -8l8 -19l-14 -18l6 -111l39 -24l33 -8l18 -17l7 6l36 19l-4 12h29l14 -12l6 12l37 -37l9 6l8 -24v-19l-17 -16h-37l-6 -8v-21h-57l-25 21l-26 -21l-107 29v16l-45 62v63l-8 8v82l8 134l-20 18l12 8l-12 10h-17l13 9l-13 6h-26v30 l-51 33h-21l8 10l-59 27l-10 8l-9 -8l-36 -8l-19 16l-72 -8l-16 21l-33 -21l-20 -18v-25l-8 -133v-74l8 -8l8 -109l12 -8l4 -51l21 -20l53 8v-19l98 -6l19 -18v-43l-35 -35l-47 27h-43l-21 -21v-6l-49 27l-39 -13l-71 -8h-178l-25 8l-18 21l8 8l-17 16l17 29l10 8l63 17 l78 28h37l25 43v43l8 8l-8 13l8 168l12 10l-26 18v45l-13 9l19 34v72l-6 8l-13 127l-16 17l10 61l19 29l-13 43l-43 35l-8 12v33l27 16l-27 29l-12 -8h-58l-63 26h-10l-8 -10zM422 692l70 17l18 -17l18 -28l33 -17v-12l21 20l57 25h49l19 29l63 8l33 24l12 58l25 6v53l-9 12 v64l17 14l-25 29l-8 -10h-12l-33 24v21h-29l-45 37l-24 -37l-90 8l-33 -16l-31 26l-14 -18l-37 -21h-27l-10 -8z" />
<glyph unicode="S" d="M178 70l19 61l-13 45v19h13l16 53l-16 106v82l16 27l61 -8v-11l64 -34v-43l24 -80h19v-21l63 -53h19l8 -37l98 -33l9 9l20 -21h33l12 12v17l86 10l33 51l39 21v16l35 33l-9 12l27 45l-18 33l36 39v6l-8 10h8l7 8l-15 27l8 12l-36 33v10l-25 6l-111 46h-32l-25 18l-12 -6 h-109l-59 33l-29 -9h-33l-12 9l-27 55l-43 8l-53 64l-10 8h-14l6 10l-27 43v33l-24 39v63l-19 15l27 18v25h16l21 20l-13 10l19 15v32l8 -14l39 27v30l43 25l24 -10l44 28l14 -10l51 35l8 -8l37 28l53 -20l17 -8l18 -17l90 -10l51 -27h31l6 -24l54 -45h8l10 63l10 43h54 l24 -18l12 -64h-12l-33 -61l25 -45l-12 -33l20 -20l-8 -99l-25 -26h-18l-27 63l-10 -8v27l-27 26l-8 43l-8 -6l-10 45l-19 8l-24 17h-13l-8 -12v12l-18 8l-25 18l-8 -8l-55 51l-45 -4v4l-33 9h-31l-35 -13l-8 -14l17 -18l-62 -25l-57 10v8l-21 19h-12v-27l12 -10l-18 -20 v-25l-19 -18l-8 -43l27 -48l-19 -14l11 -55l32 -33l64 -31l8 13l37 -25v-14l8 -6h8l9 6l39 18l6 -4l20 12l158 -59l82 8l35 -27l43 -81h18v-9l37 -8l27 -61l-7 -13l33 -32l12 -35h-12v-90l12 -11h-12l-8 -8l25 -35l-5 11l-38 -111v-16h-7l-20 -54v-8l-16 -18l4 -10l-43 -17 l-35 -43l-33 -18l-29 8h-24l-13 -8l-102 -10l-45 -27l-29 16l-28 29l-78 -8l-57 45l-29 16l-58 -37v-16h-98l-16 16z" />
<glyph unicode="T" d="M127 717v37l35 45l-6 59l-9 29l25 35l-10 36v25h10v143l-16 19l88 69l51 11v-11h74l8 11l20 -17l25 25l24 -8l91 -11l12 -6l8 6l16 -6h27l18 17l64 -11l59 -6l43 -8l31 25h16v-11l107 -14l43 -29l14 -53l4 -8l9 8v-37l30 -8l-30 -53l12 -8v-111l-21 -14l29 -82l-8 -25 l8 -10h10l-18 -33l8 -39l-33 -69l-82 6l-20 145l12 8l-12 11l-19 71v25l11 63l-25 19l-20 43l-17 16l-26 -6h-13l-14 19l-29 -72l-16 -19l-18 25v47l18 19l-10 24l-27 -8l-24 -53l-13 -72v-45l21 -25l-21 -18v-98l13 -13l-21 -16l8 -70v-20h-8l-4 -6l4 -8l8 -82l-26 -19v-24 l-7 -9l7 -12l14 -18l-21 -15l7 -61l14 -45h-14v-127l57 -33l6 6l70 -39l39 39l43 -24l45 -15l8 15l37 -19l18 -20l8 -70l-43 -8l-20 -16l-8 8l-19 -21l-82 13l-274 24l-18 -16h-25l-27 -21v13l-43 24l-57 -8l-33 -16l-55 8l-35 43l8 43l19 45l80 18l26 -24l47 6h17l8 12 l37 6l33 -24h18l18 18v49l9 82l20 17l-20 36l12 46l-21 18l-10 51l19 21v151l-19 33l10 12l-18 33l8 29l39 51v26l-8 13l-12 26h-9v166l-18 29l-80 8v8h-29l-51 -26l-10 -43l29 -29l-11 -35h-34l-29 -14l-8 -119l-6 -10l26 -43l-12 -53l-27 -29l13 -8l-56 -43l-63 26z M696 895l37 -8v-43l-18 8z" />
<glyph unicode="U" d="M57 1145h13l24 26l8 -8h29l16 17v-9l37 -16l54 16l10 -8h6l18 17l52 -17l12 8l-12 9l45 -17l20 17l70 -9l55 -26v-80l-10 -10l-98 -19v13h-44l-26 -45l8 -56l18 -14l-8 -33l-35 -43l5 -6l-13 -21l33 -32l-20 -90v-74l-13 -33l8 -10l17 -43l-12 -62h-5v-63l17 -18l-12 -9 l20 -16l-20 -21l20 -53l25 8l-7 -8l7 -8h20v-27l12 -8l-20 -18l8 -25v-20l55 -25l52 -12v-6l18 -19l133 4l53 15l54 63l-17 12l17 21h34l39 45l-12 8l-8 17l20 18l-12 12l-8 78l-19 19v63l13 -14l14 65v45l21 19l-21 26v37l-8 25l8 8l-8 12l-6 62h6l8 6l-27 47l13 35l-8 -6 l-7 6l2 8l13 -8l26 47l-12 43l-14 14l-13 29l-34 29h-72l-59 6l-19 39l6 4v20h13l24 45h53l19 17h18l17 -17l47 8l26 9h17v-9l53 -34l25 18h65l17 16h26l19 -8l32 -8l39 -37v-63l-96 -19l-29 19l-47 -19l-26 -24l20 -160l6 -98h-6l-24 -45l16 -62v-117l14 -16h-6l-8 -129 l-12 -78l26 -35v-26h-6l-8 -37h-12l-17 -19v-26l-16 -21l-29 -86l-33 -24l-12 8l-14 -37l-13 8l-6 -8l-28 -24l-54 -13l-28 -33h-25v9l-24 24l-45 -16l-46 16h-53l-47 19v12l-51 6l-37 21l-33 86v8l-57 63l-25 72v197l37 36l-45 91l27 51l-19 125h19v51l-19 47l9 6l-9 12v31 l9 12l-9 9l9 12l-17 33v63l-31 43l-32 -24l-27 16l-61 8l8 8l-8 13zM719 432l43 -18v-8l10 -9l-47 -16z" />
<glyph unicode="V" d="M20 1192l29 20v15l19 18l32 12l207 -12h185l38 -33l7 -106l-45 -21l-82 9h-25l-8 -9l20 -24v-82l-12 -8l12 -10l33 -78v-72l19 -10h26l12 -27l13 -6l-13 -18v-72l5 -152l38 -82l7 -34l53 10l28 43l15 90l-15 80l33 14v82l13 -4h8l18 57l25 37l18 21l-8 4v102h8l8 6v27h13 l8 12v8l-21 5l-8 63l-8 27h-53l-21 16l-4 -4l-39 51v27l25 43l47 12h74l159 -12l9 12h69l99 -27l34 -73l-6 -54l-8 -4l-102 -20l-17 20h-16l-29 -39h-24l-35 -51l6 -30l-35 -35v-37l-10 -6l-4 -56l-21 -34v-11l8 -8l-20 -16l-6 -66l-37 -88l10 -8v-27l-37 -43l13 -10 l-21 -16v-17l8 -12l-16 -16v-62l-35 -63v-19l19 -20l-19 -15l8 -10v-53h-18l-16 -18v-89h-13l-4 -45l-74 -51l-16 -18h-27l-90 106l17 17l-8 28l18 17l-18 16l-19 135l-20 27l14 29l6 6l-24 28v9l4 10l-25 24v56l-18 32l10 13v8l-10 8l-15 35l6 8l-24 55v123l-39 82v25 l-4 63l-39 39v8l-6 5h6l10 12v18l-6 -6l-8 6l4 8l10 -8v51l-53 21l-98 -25l-19 4l-18 21l-6 -12l-39 45v45z" />
<glyph unicode="W" d="M37 1110v8l55 37l64 -10l16 -19l16 29l13 -10h24l-8 -8h53l9 8v10l63 -45v-16l8 -13l10 13l-26 -13l-88 13l-13 -13l13 -8l-13 -8v-29l37 -45l-10 -33l-8 -45l8 -12l31 -24l-12 -7l20 -18v-127l25 -16v-29l18 -8v-80l18 -35l21 -18l33 39l-8 4l18 20v45l14 17v16l-14 18 l25 43l26 13l25 61l-4 8l4 8l20 13v-56l-8 -26v-8l45 -29l45 12l33 17l24 77l91 -151v-115l20 -8l-8 -27v-34l8 -9h10l15 13v39l20 26l-10 27v18l-10 11l28 8l25 26l-8 43v56l28 16v88l15 19l-25 71l37 43l35 13l16 32l-33 37h-45v37h9v-12l6 -4l12 4l109 12l8 16l24 29 l11 -10h26l-12 -8v-11l12 -8l8 8l-8 -32v-29h-12l-14 -16l-31 24h-4l-8 -8l-13 -82l-18 -70l10 -69v-45l-18 -62l8 -12l-15 -16l7 -29h-7l-18 -45v-78l-18 -18l-21 -142l-6 -125h-12l-15 -39l9 -8v-24h-9l-10 -11l10 -8l-20 -43l10 -53h-10l-25 -74h-8l-10 -8v-18h-19l-6 -6 l-30 -13v-8h-13v8h4l9 13l-25 18h-35l-18 43l-17 16l-8 82v133h8l4 7v28l-4 8l-8 109l-45 51l25 74v29l-19 14l-16 63l10 9v8l-20 20h-9l-16 -20v-25l-31 -37v-32l13 -58h-13l-6 -63l-20 -115l12 -27v-16l-16 -20l4 -7l12 -63l14 -45h-6l-8 12l-16 -76l4 -51l-25 -8l-45 -37 l-96 8l-43 64l8 215l-39 51l10 39v16l-10 9l-27 69l19 21l-6 24v29l-13 8l-16 25l8 82v61l8 37l-16 37l16 16l-8 8h-16l8 72l8 6l-43 57v25l-10 8l10 64v10l-10 8l-16 -18l-56 10h-24l6 8zM350 487h17v9h-17v-9zM360 500l7 14l-7 35v-49zM520 958l19 46l-13 26v19l19 6 l28 26l-8 -4l-8 21h8l17 -33h-9l-8 -10l17 -19l-9 -88l-28 -26zM582 1118l45 27v-8l53 -11h25v-8l12 -8h20l-12 -55h-66l-4 -6h-28v6l-19 18l8 25v12l-8 8h-26zM635 887l20 14l17 -14h-37z" />
<glyph unicode="X" d="M29 88h12l8 39l25 16l12 -12l14 21h64l106 8l37 45l17 71l73 35v43l13 47h32l25 43l-10 11h10l8 32l45 45l-8 13l33 24l20 54l-8 10l25 26l-25 46l-65 32l8 90h45l63 -77l56 18l16 33v55l29 45l-11 8l43 52l21 30l-8 43l-45 33l-19 18h-39l-4 39l-12 -14v29l55 37h90 l31 8v8l82 -8h53l12 8v-8l107 -8l33 -19l26 -47l-6 -25l-45 -18h-108l-7 -6l-65 -19l8 -8l-24 -30l-33 -86l-39 -35l-8 -27l-43 -74l8 -8l-37 -24l-27 -82v-21h-8l-10 -4v-29l18 -18l27 -96l29 -64h8l6 -35h37l-8 -8l51 -39l39 -133v-26l26 -19l17 -16l10 10v-18l43 -37 l45 12l45 4h45l17 -25l18 -8l14 -18l-14 -80l-55 -18h-70l-8 -11l-16 21l-46 -10h-65l-16 28l-72 -10l-51 -18h-21l-18 18l-6 -8l-37 8l-8 37l-17 16l4 62l39 16l51 -4l21 43l-8 6h-13v29l21 16l-21 37l-16 18l8 11l-8 4h-10l-25 20l-10 109l-45 80l-17 16h-16l-20 -29v-61 l-52 -25l-18 -28l-12 -6l12 -13l-12 -63l-13 -25l-20 -18l8 -6v-21l-8 12l-10 -45l-27 -36l37 -21l45 -4l45 -12l8 -9h17l20 -69h-12l-17 -37l-149 -8l-47 -21l-10 11h-15v10h-241l-25 24l-12 -6l-33 35zM92 1130l27 19v18l45 25l45 10l16 -18h205l62 -8l90 -9l8 -61 l-33 -45l-70 24l-38 -4l63 -155l-12 -56l-13 -14l-38 8l-43 54l-29 61l-17 20l7 5l-43 20v25l-33 18l-109 -18l-63 18z" />
<glyph unicode="Y" d="M49 1130l8 46v16l136 20l131 9l38 24l109 -33l25 -10l8 -26v-19l37 -27l8 9l37 -45v-9l-17 -18h-65l-51 -51v-70l26 -28l25 -62l37 -29l53 -26l70 69h18l27 39v9l-9 8l19 20l-10 25l20 20l-10 8l35 50v18l-45 39l-54 4l-24 47l8 27v8l25 29l368 6v-6l19 -9l51 -36v-52 l-37 -14l-61 -16l-43 -45h-19l-24 -25l4 -25v-28h-35l-15 -25l-18 -20v-37l-18 -19l24 -30l-33 -21l-16 -18v-19l-39 11l-10 -11v-14h-8l-9 -63l-16 -58v-33l-10 -10v-14l-10 6l-33 -43v-53h-12l-17 -45l17 -101v-78l12 -10l24 -53l29 -8l16 -17h127l33 -28h17l-4 -8l24 -64 l-12 -27v-16h-12l-13 -20l-160 -15h-45l-6 6l-12 -6l-96 -10l-25 -8v8l-12 10l-19 -18l-26 18h-8l-9 -10v10l-8 6l-8 -6v-10h-31v10l-51 6h-94l-14 -6l-25 27l-39 51l39 72l25 28h159l47 7l9 116l20 43l14 19l-26 53l12 61l14 45l-26 82l-8 9l-9 36l-47 27h-14l8 6l-18 33 v25l-19 18l9 6l-9 8l9 11l-9 8l-8 39l-27 16l-38 78l-62 90l-88 25l-14 18l-82 18l6 9z" />
<glyph unicode="Z" d="M176 57l14 62h11l20 39l70 88l8 26l8 -8l35 43l10 74h17l28 76h17l18 43l19 20l-9 10l25 27l8 45l12 19h13l39 43v28l26 17l13 53l57 37l12 88l78 80v53l-16 29h-82l-25 -29l-45 10h-18l-19 25l-6 -6v6l-63 18l-37 -61h-29l-16 -29l16 -49h-16l-9 -21l-24 -26l6 -82 l-27 -17v-18l-43 -16l-39 34v43l-12 39l4 31l21 47v117l8 45v16h10l15 37l12 -8l33 33h36l21 20l43 -8v-12h33l63 20l29 17l33 -11l39 -6l96 -8h37l8 8l26 -20l43 20h27l64 -37h26l29 -45l-10 -32h10v-29h-10l-33 -35v-18l-39 -35l18 -19l-18 -18l6 -6l-43 -33l-35 -78 l-18 -18v-6l10 -11l-45 -26l-33 8l-39 -53l11 -8h-11l-18 -74l12 -6h-12l-8 -8l8 -11l-78 -53l-10 -61l-62 -9l-10 -20l-20 -25v-45h-13l-12 -28l-43 -27l-80 -88l-10 -45l-27 -45v-21l-16 -12l37 -31l24 31v27l9 6l28 -21h9l8 15v-19l28 -8h72l35 12l29 21l24 -6v-19 l45 -20h33l12 12l78 12l10 15l64 63l14 33v53l19 53l-7 37l-12 27v27l43 45h12l9 -9l18 13l37 -4v-21l-10 -8l16 -16l-6 -127l-29 -52l-14 -39l14 -94l-8 -20l-6 -70l-64 -24l-47 8l-18 16l-17 -16l-8 8l-39 -29l13 -8h-45v8l-17 21l-28 -21l-54 13l-8 -13v-14l-24 -12v12 l-64 35l-82 -21l-51 29l-127 -8l-8 -8l-21 -13z" />
<glyph unicode="[" d="M283 256l24 43l-8 152l29 153l20 35l-24 57l-21 209l12 33l9 70l-13 51v35l21 43l-29 98l29 74l-37 47l33 90l78 4l110 27h98l29 -9l78 9h78l41 -95l-47 -116l-129 -9v5l-132 -56l21 -30l-74 -121l4 -146l17 -39l-13 -100l-8 -29v-34l21 -103l-21 -108l25 -66l-33 -59 l-4 -107l16 -76l-32 -65l32 -78l-12 -45l-4 -90l65 -49l189 12l102 -86l-12 -51v-64l-92 -30l-107 10l-73 24l-29 17l-80 -27l-94 15l-25 32l-24 49l16 263l12 45l-12 96z" />
<glyph unicode="\" d="M29 1393l8 45l37 12l32 -25l46 -14l28 -25l45 -96l70 -110l63 -193l27 -10l35 -64l-10 -43l143 -206l37 -107l-8 -8l96 -98l47 -109l49 -78l-6 -10l80 -154l45 -24l16 -64l-8 -45l25 -24h12l27 -66l-19 -24l19 -27l6 8l37 -8v-27l45 -53l20 -70l-31 -10l-51 35l-53 119 l-64 33l-18 38l8 7l-24 36l8 9l-29 24h-8l-6 37v21l-37 51h-18l-25 55l-10 51l-10 39l-54 25l-8 26h-10l-19 82l-32 43l-107 224l-74 43l-28 106l-43 57l-27 86l-51 64l-27 59l-73 101v43l-103 155l-12 -12v25l12 30z" />
<glyph unicode="]" d="M311 -266l47 114l129 9l129 53l-18 33l88 125l-2 14l-37 61l33 66l-21 43l17 100l8 25l-2 37l-18 104l20 107l-25 67l31 58l6 108l-16 76l31 65l-29 78l8 43l-6 86l-45 27l45 45v-4l-141 8l-56 -12l-57 -27l-100 86l10 51v62l92 33l103 -9l75 -24l29 -17l82 25l98 -12 l17 -35l30 -47l-22 -262l-13 -50l13 -96l24 -86l-28 -43l8 -155l-25 -150l-22 -35l26 -57l13 -236l-9 -8l17 -76l-12 -57l-9 -8l13 -17v-65l8 -74l-17 -28l5 -27l8 -21l10 -43l-31 -94l-82 -2l-108 -24l-98 -2l-27 8l-80 -6l-76 -2z" />
<glyph unicode="^" d="M158 1329l121 178l32 13l43 51l142 117l61 -21l8 12l90 -26l70 -74l45 -90l45 -31v-28l98 -74l-8 -115l-61 -24l-45 6l-101 82l-34 51l-86 63l-58 11l-33 53l-90 -25l-8 -12l-47 29l-6 -99l-37 -80l-66 -63l-51 20z" />
<glyph unicode="_" d="M-115 -334l19 113l80 55h82l30 8l13 11l34 -11l168 -18l8 -6h17l10 6l47 10h422l166 -16l27 16l151 -10l37 -6l16 -19l11 6l18 -18l21 18l4 -6l-9 -8l9 -12h20l-20 -129l-37 -47l-45 -19h-25l-18 -16h-8l-11 10l-8 -10l-141 31l-119 -15l-18 19l-35 -19l-90 15l-29 -31 l-219 10l-90 21l-27 -21l-27 6l-325 19l-76 28z" />
<glyph unicode="`" d="M319 1296l27 76l31 14l133 -26l51 -35l8 -10l-16 -19l53 -51v-65l45 -4l94 -91l33 -18l-12 -72v-8l-53 -16l-131 78l4 10l-25 14l8 12l-16 33l-35 31l-8 -12l-100 43l-25 57z" />
<glyph unicode="a" d="M92 225l27 47l-19 35l11 53l45 21l53 76l16 18h35l39 12v13l-74 20v19l-8 10l-35 72v43l-12 34v43l31 39l-13 8l21 17l-8 26h16l8 13l21 14h14l10 -6l72 49l18 -14l7 8l71 18l82 -12l6 -6l13 6l112 12v-12l90 -6l39 -18l-12 -7l37 -12h18l35 -53l10 -6h-10l-10 -11 l35 -34l12 -56v-356l6 -43h-6l-12 -8l18 -37l12 -8h13v-13l20 -12l58 25l43 8h26v-8l17 -21l-17 -131l-12 -8v-29l-45 -45v-14l-121 -18l-27 18l-10 -12l-72 47l-24 43l-21 -19l-61 -8l-45 -37h-53l-17 -14h-73l-9 6l-8 -6l-45 -18l-20 18l-4 -12v12h-46l-12 -12l-24 26 l-78 -8l-82 82h-21v14l-24 19l8 24l-16 33zM291 264l8 -63l25 -25h24l19 -18h18v6l8 12h74l90 -12l33 37h37l53 53l-8 10l26 27h19l16 24h-28l-33 27l8 12l18 43l7 -12v21l-25 8v-8l-115 -25h-53v4h-29l-8 -4h-82l-16 -21l-10 9v-15l-7 -12l-12 12h-24l-9 -12h-16l-8 -27 l12 -16zM303 557l12 -27l134 -10l18 37h8l8 -8v-10l9 10l65 16l16 37h29l70 -10l18 37l27 18l33 -18v51l-25 37h-35l-31 20v17l-102 8l-18 18h-90l-19 -18l-37 8l-16 -33l16 -39l-8 -6l39 -71l-64 -56z" />
<glyph unicode="b" d="M37 1137l72 82l45 -11l196 -8l60 -72l-17 -69l17 -119l-17 -14l-8 -103h-8l-12 -4l20 -20v-8l-8 -11l24 -18h19l33 43l14 -6l16 45l78 26l25 17l102 -17l70 11l8 6v8l37 -14l24 -45v-37l13 -8l14 -29l12 12l19 -20l-13 -9l37 -16v-27l35 -55v-90l19 -27l10 -6l-10 -10 l10 -8v-39l-19 -61v-91l-20 -12l10 -31l-43 -79v-17l-125 -135l-55 -37h-27l-16 -14h-19l-8 -10v10h-73l-5 -10l-20 18h-25l-90 63l-18 19l-109 -66h-37l-24 66l18 43l-8 45v25l14 20l-6 78l-8 12l14 25l-14 43l-10 10v149l18 19l-8 47h8v25l-8 8h8l6 30l-14 33v144l-10 45 l-8 114l-13 9l-24 26l-96 10l-48 25l-16 29zM377 406l8 -25v-74l61 -86l25 -8l64 -66l43 -8l28 -16l45 16l62 29v14l8 11h12l8 32l54 66l8 24l8 45l12 29l-20 53l-8 9l-19 45l19 34l-29 48v69l-45 17l-27 45l-35 28l-16 -28h-82v20h-26l-19 -20v-7l-33 -38l-30 -68h-7 l-45 -66l-8 -34h-8l16 -17l-8 -12h-8l16 -16l-8 -9z" />
<glyph unicode="c" d="M143 424v10l21 17v55l8 51l70 115l26 20l-8 10h8l19 35l45 25l10 29l10 12l-10 8l8 8l6 -14h13l8 14l98 25l8 -8l27 16l55 18l8 -8l5 19v-11l20 -8l82 -10h27l18 -16l33 8l65 -64h8l9 11l45 -37v-17l6 -8h18l-8 -12l47 -45v-25l19 -18l-19 -27l6 -6h13l-33 -82v-8l14 -10 h-18l-64 -54l-63 9l-27 16l-18 -16l-25 12l-8 24v9l-12 10v51l63 72l-6 18l-57 37l-6 25l-82 28l-60 8l-55 -36l-43 -17h-29l-37 -33l-59 -63v-14l-31 -25l13 -8v-25h-13v-28l31 -125l8 -11h-8v-57l43 -82h35l47 -63l43 -19l63 -35l62 7l63 36h9l6 -8l20 54h17l65 65l-12 6 l106 39l72 -20v-58l-8 -24l18 -19l-37 -43l-24 -16l4 -12l-49 -62l-19 -16h-26l-17 -29h-8l-12 10l-27 -24h-35l-16 -31h-37l-29 -12l-34 4l-47 -25l-25 21l-4 -13l-21 17h-61l-180 110l-27 25l-63 115l-7 -8l-26 28l8 4v21l-8 12l-10 102z" />
<glyph unicode="d" d="M143 315l11 13l-11 8l11 131l6 47l8 25l18 18l-8 12l19 13v47l16 18v12l-8 5h8l16 45l21 28l8 -8l88 76l39 18h43l43 29l82 -16h33v-13l39 -4h26v-28l17 -17l53 6l20 25v18l4 -4l13 4v13l-17 16v29l-28 32l28 45l-28 46l-25 16h-29l-8 -4l-116 4l-56 65l37 91l8 -13 l19 29l63 -16h62l10 -13h16l19 17l71 -4l43 -21l21 -45l6 -141v-88l-18 -29l18 -123l-6 -65v-17l6 -8v-125l-6 -8v-10l18 -17l-12 -90l18 -18v-56l9 -139l28 -29h54l18 -24h51l27 -19l18 -18l13 -61l-74 -54h-53l-19 -20l-35 8l-8 12h-29l-6 -12h-63l-27 31l-10 -10v-9 l-45 19l-27 35l-35 -35h-34l-47 -64l-43 8h-11l-14 17l-18 -17h-64l6 13l-14 12h-74l-27 45l-16 21l-8 -11l-53 54v12l8 6l-45 72l-37 43l10 45l-10 12zM295 514l8 -72l8 -114l27 -70h27l36 -33v-12l52 -82l-7 -8h64l6 16h8l19 37l26 6l17 31l39 8l63 62v20l14 33h11l8 61 l-33 66l6 119l-16 39l-53 8l-47 55l-35 8l-97 10l-45 -30l-24 -51h-21l-18 -43l-27 -29z" />
<glyph unicode="e" d="M162 451v36l24 9l19 34v72h12l33 70v20l57 45l70 33v29l43 24l8 -8l25 29l18 -21l21 29l124 -8l125 -21l17 -18h26v-17l11 -8h28l17 -43l51 -45v-28l39 -72l24 -27l-10 -8l19 -27l-9 -10v-24h-10l-10 -39v-6l10 -9l-10 -45h-68v9l-18 8h-25l-65 -45l-64 45l-88 -29 l-24 -31h-21v27l-26 16l-115 -12l-55 -16l-33 16l-25 -25l25 -45l-21 -16l27 -35l-6 -10l33 -64l55 -26v-6l90 -39l25 -25h51v-8l12 -10l45 24h70l28 19l25 57l45 25l55 53l35 10l33 -43l-4 -45l-39 -45l-19 -37l-49 -37l-28 -32l-107 -21l-29 -24h-43l-18 -21l-25 8l-30 19 l-123 12l-64 43v16l-6 11h-18v18l-25 14l-12 11l-8 47l-45 32l-25 43l-12 66l-8 98zM385 539l16 -43l19 -9v-12h26l46 -8l43 25l22 8l16 -4l25 -29l18 20h15l20 27l8 -14h48l6 147l-45 62l-9 28l-8 -20h-8l-12 8v12l-49 -12l-21 -16l-8 8v8h-18l-7 12v4h-36l-25 -24l4 -37 l-18 -16l-7 -54q0 -10 -26 -45l-27 -16z" />
<glyph unicode="f" d="M139 33l8 28l21 19l-8 6v8l104 45h31l4 19l82 -47l29 12h24l25 45l12 78l8 172l8 6l-8 10v90l17 15l-25 90l8 63l-63 45h-54l-18 -20h-80l-35 20l-12 -8l-43 33l-6 18v25l25 31l45 -13l43 -4h26l45 17h64l37 -31h6l28 31v26l9 8l-17 56l17 43v8l-9 6l29 33v14l45 43v37h8 l25 27h37l33 10l-9 8l45 25l29 -17h16v-16l27 -19h10l-20 -26h-43l-19 -17l-6 9l-30 -29l-52 -25l-39 -24v-21h-4l-20 -108l12 -6l43 -45v-17l35 -20l55 6l43 31l35 -13l39 -4h25v-20l18 -19v-35l-100 -8l-9 -8v8h-81l-25 8h-27l-39 -36l21 -213l-8 -45l8 -9l18 -45 l-18 -114l10 -11v-34l8 -99l52 8l12 11h24l19 -27l18 16h99l8 11l53 -35l21 -19v-100l-82 -45l-45 31h-9l-20 -19l10 -12h-78l-43 -8v8l-20 21l-135 -21l-17 -12l-8 4h-18v8l-19 21l-8 -9l-98 -20l-33 -4l-14 -13l-17 17h-16l-10 -4v4l-21 20l-49 9l-8 10zM811 1137l25 10 l43 33l47 -43l24 -9l115 -98l-14 -96l-13 -8l-30 -31l-82 10l-8 8v56l24 71v25l-12 8l-12 37l-39 -8h-35l-17 16l-12 -8z" />
<glyph unicode="g" d="M100 -111l6 62v20l21 19v43l27 53l-11 8v10l17 19l-6 45l-19 45l8 8v17l-8 8v69l53 82h72l27 21v45l-27 24l6 9l-6 10v123l-10 10l74 106h6l63 60h17l10 14l-10 -8l-4 12l14 -4l24 43l64 25l18 -17l52 11h26l47 -37h29l6 8l27 -29l12 13l8 -31l43 -31l25 6l18 43l21 21 h24l8 8l46 18l61 -8l20 -43l37 -28l6 -29v-78l-6 -12v-13h-20l-8 -12l-54 -26l-45 43l9 8l-27 65h-19v8h-32l-21 -43v-10l-4 -8l12 -20l21 -82v-43l-8 -9l8 -6l-21 -45l13 -12l-39 -16l-19 -27l-14 -43l-74 -35l11 -10l-62 -33l-98 -12l-88 16l-47 47h-9l-20 -18h-43 l-14 -21l-74 -69l29 -25l8 4l37 -12l6 -31h80l53 39h37l8 4v-4l82 -8h26l27 25h8l17 -17l12 4l14 -12l11 8l53 -45h10l8 17h115l82 -54h18l25 -59l20 -76v-33l15 -12l10 -57l-19 -21v-24h-6l-20 -19l-17 -90l-8 8l-30 -32l-7 6h-28l-8 -21h-9l-18 -16l-19 12h-24l-8 -12 l-72 -51l-31 18l-32 -12l8 -6l-27 -9l-18 -18l-123 27l-45 -19h-37l-35 37l-80 6l8 10l-53 9l-16 20l-8 -12l-58 37l-4 -6l-29 6l-10 26l-43 27v8l8 8l-8 13l-20 53zM279 -53l32 -13v-8h19l8 -10l-14 -35l6 -12v-4h8l29 -21l61 -6l10 -26l70 8l18 -29l35 8h62l20 21l43 6 l27 -14l24 14l13 12l8 -12h24l58 39v4l24 12v8l27 62l-27 53l-6 -6h-31l-45 35v8h-24l-45 8l-27 -24h-27l-24 43l-119 -19v-16l-8 -8h-37l-14 36h-19l-28 -20l-80 -8l-6 -29l-37 -14zM393 629l17 -80l18 -19v-24l-8 -10l-10 -54l18 -18l10 -6v-12h33l12 12l9 -12h131l114 61 l21 39l-8 24l-13 82l21 35l-21 17l13 8l-25 30l-20 7l-101 65l-31 -20l-65 26l-45 -6l-43 -29l-19 -53zM616 -29l7 9h12v-9h-19z" />
<glyph unicode="h" d="M33 1085l33 62l-13 8l62 37l98 -29l45 -8h29l8 8h45l37 -45l-21 -98l-10 -4l31 -58l-12 -53l-19 -18l19 -88h-9l-10 -37v-60l19 -30l45 12l36 53l25 8h8l37 54l66 45h30l13 8l26 10v8l43 17v-6l47 -29l86 -8l39 -25v-45l25 -20l18 -9l9 -43v-18l8 -12l8 -33l10 -176h10 v-21h-10l-10 -45v-133l20 -133l45 -8h115l8 -12l19 -50l-8 -36l-31 -74l-86 8h-98l-37 12h-33l-37 -20v8h-66l-43 -25l-43 37l-8 -12v21l-26 24v21l-27 24l-37 -35l-8 -24l-18 -19l-43 9l-46 -33l-18 4h-43l-20 -17l-46 13l-24 24l-37 -24h-29v4l-4 8l-12 -8l-8 8h-8 l-11 -12l-90 12l-30 21l-21 18v27l21 16v63l96 7v-7h63l17 27l-13 45v25l13 12l-17 12l17 33v33l8 12l-8 4l-17 29l4 98l13 8l-17 21l4 61l13 6l-17 27l-12 45l16 37l13 78l8 12l-21 16l13 99l-17 18l25 115l-8 39l-64 14h-35l-8 -10l-20 10l-35 10zM346 315l19 -24v-45h-9 l9 -33l12 -12v-62l43 -28l26 20l54 -20l16 20l27 -20l18 -43l51 12l66 51h63l4 8l13 -8l26 -8l-8 102l15 47l-25 56l10 8l8 18l7 52l20 18l-8 90l-19 16v109l-18 33h-21l-4 12v18l-8 -10h-31l-24 17l-66 8l-59 -53l8 -5l-8 -12l-53 -18l-8 -51l-82 -64l-33 -72h-12v-24 l-9 -12z" />
<glyph unicode="i" d="M170 66l10 61l45 29h51l27 18l127 -8h96v59l-14 31h-20l8 14h12l6 -8l27 45l-8 8l20 134l-12 34l-8 160h8l20 82v8l-28 25l-25 -4l-57 -54l-17 25l-28 29h-52l-18 -21h-45l-35 45l10 13l-10 6l-16 26l8 64h24v18l91 -18l10 6v-6l160 -19h20l8 -8l17 19l69 -11l39 -71 v-203l6 -82v-63l-16 -33l10 -135l6 -43l19 -58v-6l18 -18l45 10l53 8h125l52 -8l26 -43l-6 -31v-8l19 -18l-13 -33l-18 -37l-45 -21l-88 -8v8l-35 21l-37 -8h-121l-10 -13l-21 21l-45 -21h-77l-54 -24l-28 16l-17 21l-8 -13l-154 13v8l-6 6l-10 -6l-47 6l-25 12zM475 1135 l12 -7l27 43h8l27 25l8 -4h8l56 25l71 -37l25 -64l8 -78l-57 -43h-13l-8 4l-12 -4h-78l-61 4l-9 103v26l-8 -8z" />
<glyph unicode="j" d="M201 -201l20 160l4 12l45 43l9 -10l28 29l8 -8l9 8l28 16l97 -69l8 -54l18 -45v-24l-8 8l-18 -39l-19 -27h-24l-9 13l-45 -29v-16l33 -29h21v-8h81l5 8l81 10v35l54 43h8l20 18l-8 64l17 26l-9 46l-20 24l12 29l-20 8l20 20l-12 7v12l16 10l-12 6l8 8l8 -10v53l-20 125 v56l20 26l-20 80l12 8l-12 9v73l12 58l17 20l-9 27v18l-34 25l-76 20l-45 -20v-8h-133l-25 28h-8l-10 -8l-17 18l-8 -10l-29 25l21 57l43 25v20l18 4l54 -4l36 -14l123 -6h144l32 20l45 -39l29 -71l-10 -7v-18l18 -20h-8v-267l8 -8l-18 -29l-6 -147l-13 -12v-25l19 -18 l-6 -54l-13 -63l19 -16l-6 -144l-37 -55v-51l-21 -51v-39l-4 8l-47 -60l-69 -39l-13 9l-26 -13l-9 -12v-18l-28 10l-6 -10l-72 10l-43 8l-39 12h-25l-18 -30l-63 106l-9 -6l-18 16l-6 -10l-13 39l-24 25zM530 1004v16h9l6 39l28 43l29 16l6 10v19l64 29l45 -21l37 -45h26 l6 -25l29 -20v-82l-53 -33v-16h-21l-24 -29l-37 8l-8 13l-8 -13l-82 21l-43 70h-9zM545 -66l28 13l48 -21l-13 -24l-35 -33h-28v65z" />
<glyph unicode="k" d="M70 33l10 35l26 26l9 -8l16 18l98 19l37 35l-8 10h-10v25h10l14 32v78l15 4l-21 21v43l-8 26h8l6 45v54l-6 73v27h21l16 33l-12 88l20 20l-20 25l12 82l-12 8l-19 18l19 113l-25 66l-96 10v6l-82 29v34l43 35l45 -8h8l11 -8l18 16l123 -8l12 -8h14v-37l11 -8l8 8l-8 -51 l-19 -39l19 -43l-11 -64v-204l19 -7l-19 -55l-14 -26l6 -43l8 -9h19l12 -82l25 -20l45 -16l33 16v12l36 17l64 61l33 55h39l8 9l10 -52l-72 -73l29 -90l49 -9l13 -8h14l31 -35l12 -108l57 -33l17 -55l28 -35l70 -19l8 -10l29 29l33 -12l45 -7h18l18 -24l-8 -12l17 -35 l-17 -19l8 -10v-6l-8 6l-16 -14h-57l-121 -10v10h-129l-25 -10v-9l-18 -20l-25 8h-18l-64 66l-8 55h51l29 31h16v36l-16 66h-8l-25 25v45l-39 20l10 57l-18 21l-10 43l-17 18l-43 -24l6 -12h-6l-18 -35h-29l-8 -11l-27 -24v-21h-8l-10 -8v-16h-20l-5 12l-20 -20v-62l20 -28 v-11l-20 -14l20 -57l131 -17l29 -14v-66l-8 -16l-27 -39l-82 39l-26 -18h-37l-27 -29l-67 8h-74l-61 -12h-25zM596 774v17l90 28l19 -20h24l8 -25v-20h25l45 45l37 20l90 -14l-8 14v-65l-62 -25l-20 -20l-115 -7l-10 -30h-8l-6 12h6l18 33v12l-43 16l-72 -16l-10 -12z M971 791l33 14l12 -6h26l-18 -54l-45 17v18z" />
<glyph unicode="l" d="M190 4l19 21l-8 8l16 35h12l15 36l80 -10l82 37l26 -8h27l37 45l16 14l-16 64l16 61l29 21v18l16 14l-53 58h-8v24l45 54l24 82l-8 106l-8 8h16l29 53l-21 17l-16 61h8v58l-8 178l-53 -19l-21 19h-106l-58 -29l5 10l-5 9h-12l-8 -9l-70 33l-20 29v53l63 21l9 -13l6 17 l164 -4v-13l16 -16l82 8l8 8h43l29 -16l26 -10l27 -52l-10 -180l-17 -43l17 -18l-17 -25v-57l9 -8v-70l18 -72l-18 -16l-9 -162l-12 -10l21 -18v-46l8 -6l-17 -18v-64l27 -90l-10 -6l10 -8l18 -57l19 -17h35l8 10l26 19l48 -43l43 -12l6 12l82 14l45 -26l18 -35l-10 -29v-6 l-72 -47h-35l-61 -17l-37 17l-45 -17l-37 17v8h-33l-28 -12l-8 4h-21v8l-115 12l-6 -12l-63 -8l-43 -17l-27 13h-20v4l-131 8z" />
<glyph unicode="m" d="M29 53l32 56l19 -19l16 10l47 39l35 -8h27l20 27l-8 6l12 26v146l13 45l8 70v63l-25 35l17 61l18 45l-10 9l-8 34l-37 39l-33 -20l-63 37v8l-13 8h-14l-10 29l-6 6l69 65l43 7l19 -19l8 12l20 -18h25l69 -37l19 -27l12 11l15 -19l55 35l8 29l10 -13l45 39h33l12 7l15 -19 l30 12l86 -100h19l16 18l39 -8l43 25v18l80 29l45 6l115 -43l-8 -10l24 -17l12 -71l19 -19l-19 -159l-28 -97l28 -73v-205l19 -53l51 -11l8 11v8l45 -19l9 -43l-25 -53l-45 -18l-55 12h-121l-154 6l-10 -18v12l-59 6h-29l-19 -18l-124 18l-7 -18l-45 18l-16 37l4 35l29 10 l28 14l7 -6l51 45l-4 4h4l20 39l-20 43l-4 29l16 18l-12 7l20 36l-33 66l33 76l10 10l-10 8l-20 25v57l-4 8l49 56v14l-6 12l-9 -12l-18 20l-12 25l-94 29l-9 8l-63 -37l-35 -45l-8 -57h-21l-24 -64l18 -108v-224l15 -24v-19l-9 -8l45 -12l37 -33l-18 -53v-35l-125 -12 l-45 -6h-64v18l-129 -6zM659 225l54 -61l-6 -6v-27l6 -12v-8l71 20l19 -37h8l29 17h32l37 20v8l-8 25l-10 82l39 45v24l-21 117l35 68l-14 20l4 10l20 72l-20 27l-16 43l-9 -8h-8l-16 16l-13 29l-61 28l-27 -12v-27l-8 -34h-18l8 -9l-25 -26h-8l-39 -72v-37l-26 -53l45 -61 l-6 -9v-12l-19 -78v-28z" />
<glyph unicode="n" d="M70 -2v43h6l18 45l29 25h49l57 28l25 -8l8 27l19 35v28l-9 4l27 33l-8 14v117l-10 8l-9 27v178l-10 10l19 17v30l-52 5l-24 8v30l-90 60l-13 37l-8 37l53 51l82 -25l9 8v-8l43 -10l43 35h12l8 26l6 -26h19v-17l37 -34h34l11 -13h20v-24h78l55 45h25l63 43l27 8l18 -14h17 l8 6v8l45 -14l8 6h16l66 -51h16l74 -107h-12v-57l12 -51l25 -52v-20l-37 -43l12 -383l43 -29l8 10l56 -106l-37 -18l-8 -9l-29 27h-123l-12 -8l-115 -10l-16 18h-72l-18 27l8 69l10 -8l10 8l33 10l145 7l15 20l-6 8h-9l15 19l-6 10l-27 90l8 49l25 29l-25 35l10 26v21l-18 6 l18 133l-30 45v45l-78 62l-25 8h-30l-25 -25l-64 -33h-32l-21 -38l8 -9l-51 -82v-24l-8 8h-18l-17 -27l4 -24l-4 4l-53 -121l6 -43l19 -90l-25 -20v-35l25 -47l135 -7l18 19l6 -12h19l-37 -17l-19 -69l-51 -54l-43 19l-53 -19v9h-164l-8 10h-16l-21 -19l-27 19l-43 -10 l-8 -9v-12l-55 45l-8 -6h-6z" />
<glyph unicode="o" d="M176 272l10 88v21l9 4l-9 12l15 54v106l37 64v14h8l18 57h12l7 6v19h8l37 45l90 82l53 8l8 6l45 19l107 -7l47 25l51 -8l45 -43l6 8h13l18 -21h25v-16l34 -35l11 8l53 -71l-8 -8l32 -45l19 -17l-6 -12l33 -33l12 -24v-13l4 -8l-16 -18l16 -25v-57l14 -33v-82l-18 -27 l-21 -106v-19l-24 -14l-13 -12v-25l-32 -39l8 -6l-29 -26l-69 -56l-13 -26l-78 -19l-61 -33h-20l14 9l-19 16l-106 -8h-82l-18 35l-64 18l-61 64l-52 43l-30 47h-17l-34 32l6 11l-15 24zM336 530l18 -63l11 -53l8 -107l24 -28v-15l82 -121l45 -4v-8h97l57 33h24l19 -21 l24 33l-8 6l62 64v26l-6 7l43 45v57l26 51l-26 64l-17 18l4 35l-12 16h-12l-6 70l-64 37v8l-37 12v6l-33 11l-38 28l-43 -20l-9 -8l-12 8l-25 -19l-90 -6l-45 -37l-24 -34l-8 -56z" />
<glyph unicode="p" d="M74 -270l10 69l35 27l8 -6l8 6h45l10 -6l35 14l43 -8h19l28 27l-8 63v27h8v151h9v25l-9 24l17 33l-8 45h-17l-20 33l28 88l17 43v164l18 33l-10 159h-25l-53 -4v-12l-18 -16l-82 28l-35 43l8 72l70 25l12 18l70 -8l28 -17h62l8 7l16 -19h27l12 -35l64 -24l6 6l27 -6 l20 16h35l33 37h18l39 35l88 -10l8 -7h25l28 -26l29 14l58 -27l38 -30l-30 -64l61 -12l21 -33l45 -63l10 -51l10 -154v-64l-10 -36v-17l18 -16l17 -27l-54 -10l-6 -45l-30 -33l-9 -45h-18l-33 -37l-10 -37h-8l-12 -8l12 -8l-37 -16l-8 8l-54 -35l9 -31v-8l-25 -25l-57 17 l-43 8l-8 -8l-35 16l-33 -33v-26l-14 -10l-7 24l-36 21l10 8l-10 8h-21v21l-24 24l-9 -6l-36 -12l-17 -27l8 -106l21 -19h24v-8l33 -19l31 19l80 -43l24 8v-82l-8 -8v-25l-6 9l-31 -29h-78l-12 10h-12l-31 -24l-72 24l-24 -24l-45 6l-19 -19l-63 13l-8 6l-19 -19l-78 13 l11 6l-74 18l-43 35l6 8zM475 432l35 -51l-6 -12l45 -54v-24l-21 -19v-26l21 -21l33 -24l18 -43l6 6l58 -45l69 -8l37 47h45l33 24v39l18 12l8 21l-26 25l-8 28l26 35h27l12 -6v33l-57 45v18l18 25l27 57l-27 16l-6 48l25 24l-19 33l-43 20v9l-45 28l-37 -20l-8 -8l-45 8 l-24 8l-39 -16l-68 -72l-8 -43h-12v-29l-9 -20l-10 14l-4 -8l8 -6h6l-24 -25h-21z" />
<glyph unicode="q" d="M147 369v151l9 -6l8 16v27h10l19 35l16 18v37h8l21 33l77 74h19l8 8l88 53l29 -16l33 16l57 -16l72 6l18 -35l45 -8l25 -8l45 34h90l4 -34l20 -37l-6 -62l6 -8l9 -45h-9l-20 -37l20 -26v-43l19 -29v-35l-10 10l-9 -88l19 -18l-10 -72v-10l16 -21h-6l-19 -147l19 -18v-35 l18 -74l-12 -43v-47l12 -62l53 -16l50 16l32 -8h15v-8l55 -35l-20 -80l-25 -28v-19l-45 -18l-37 18l-25 -6v6l-8 13l-10 -13l-63 -6l-33 -20l-39 8l-8 12l-11 -12l-53 12l-4 -12h-57l-33 -8h-31l-14 20l-55 6l-33 37v35l6 8v29h8l10 6h-10v18h10v-6l9 -12l18 18h25l12 13 l53 24l17 -16l53 -8l16 78v24h8l13 31v8l-13 6l-24 29l12 8v8l-39 19h-43l-39 -35l-26 -8l-25 -27l8 -8l-45 8l-14 18h-90l-64 17l-106 125l-21 43l-8 12l-8 27h-16l-11 32l-8 11l-10 78l-8 36v27l8 12zM307 315l27 -61l43 -53l-6 -11l14 -14v-18l39 -19v4l6 15l29 -39 l114 -8l21 20l-12 8l20 37l49 25v32l39 39l27 7v20l16 107l-16 18v8l-33 10l-12 -10l-21 19l13 6l-17 18l25 25l-21 39l-4 26v27l-53 10l-29 27v35l-26 28l-19 -20l-45 8l-45 -59h-24l-64 -43v-127l-35 -37v-99z" />
<glyph unicode="r" d="M123 49l4 37l39 33l115 20l18 19v-15l78 -24l24 20l-12 37v25h25l18 32v136l-10 12h10l8 70l6 24v21l13 4l-37 30l10 27l14 90v8l-24 25l10 12v6l-31 27h-51l-6 12l-10 -12l-80 -16h-10l-6 -11l-21 27l-8 -8l-37 45v53l29 55l123 -18h143l55 -47l27 -43v-53l-21 -37l9 -8 l12 -29l16 -14l35 43v8l-8 8l63 29l9 61l81 29l33 32h82l6 13l19 14h37l53 12l45 -39v-16l43 -27l10 11l17 -37v-90l-17 -17v-53l-74 -45l-61 45l-8 33l-8 12v25l8 8l-37 57h-70l-8 -12l-90 -61l-53 -72l-17 -14l9 -13l-54 -35l-28 -55l10 -43l-27 -35l8 -12h-8l-8 -49 l-8 -12l24 -17l9 -28v-97l10 -6l33 -45l18 12h39l6 15v-15l12 -4h25v-8l90 -20l25 -17l8 6v-88l-45 -32h-49l-47 -21l8 -8h-43l-17 16h-45l-10 13l-35 -21h-37l-6 -16l-76 16l-14 8h-35l-20 -16h-27l-6 -8l-63 -9v9l-27 8h-29l-24 29l-11 -13z" />
<glyph unicode="s" d="M182 76v67l6 90l13 39l8 7l-8 12l-13 33v30l13 15l16 28l43 9l43 -46v-18l45 -35h19l-7 -8l46 -20h24l8 -25l-14 -29l43 -24l25 8l28 16l37 -35l-12 -32l12 -15h16l9 33h65l12 -18h13l26 24l-8 27l8 12l27 -31l37 11l18 90l35 16l8 8v9l-8 12l-10 24l-72 54l-35 10 l-47 33l-4 -6h-31l-14 16l-12 -10l-78 -15l-37 15l-90 10l-82 63h-12l-12 -10l-46 62l-16 73l-8 54v28l70 115l24 6l146 55l43 -12l8 -6l20 18l62 -18h53l45 -37l61 -6l21 -29h18l35 54h8l17 18l37 -8l6 -10h12l-8 8l10 6l4 -4l-6 -10v-19l6 -6l25 -64l-25 -71l-6 -8l18 -17 h-12v-28l21 -43l-21 -29h-43l10 10l-63 62l-19 53l-114 88l-56 -6v6l-43 10l-47 8h-43l-45 -8l-90 -74l-14 -16l26 -33v-20h-12l-6 8l-18 -25l18 -20v-33l43 -37h107l47 -8l88 -8v-10l45 -25l33 16l100 -10l63 -53h33l21 -53l51 -54v-69l-8 -66v-24l-64 -62v-20l-6 12 l-80 -82l-90 -16l-8 -8l-66 -21l-16 -18l-8 12l-25 -18l-57 45l-6 -13h-27l-20 21l-9 -8l-45 24l-78 -8l-100 -29h-27z" />
<glyph unicode="t" d="M82 770l10 10l-10 8v82l53 43l21 -12h26l6 21l91 -9l45 -26l43 26v267l10 28l47 25l51 -8l8 -11h29l14 -26v-33l31 -18h8l-45 -88l25 -72l-25 -55l25 -27h170l53 6v12l18 -18h45l43 -37l-6 -59l-10 -11v-18l-35 -16l-28 8h-90l-7 -8l-116 8l-25 -25v-45l-37 -20l-20 -17 l26 -77v-82l43 -45l-24 -19l-25 -26v-21l37 -16h33l-8 -9l8 -6l-33 -82l12 -26l21 -21h37l24 111l-18 18l14 43h12v-73l21 -17h18l27 47h16l70 78l72 -18h10l8 -45v-97l-8 -8v-31h-10l-9 -12l-34 -39l8 -6h-8l-17 -57v-8l-37 -17v-26l-18 -19l10 -8l-73 -8l-25 -21l-21 -32 h-12l-14 -13l-25 31l-108 -12l-17 -19l-34 37l6 37l-70 45l-27 78h-10l-6 12v25l25 24l-19 99l19 100l10 154l8 86v90l-27 16l-88 -16h-88l-18 -17l-37 25l-8 -8l-19 16h-18z" />
<glyph unicode="u" d="M-6 831l16 43l31 15l25 -4l45 8l4 -10l24 -31v2l-8 8l8 8l8 -12l9 19l73 -33h45l-12 -13l37 -16l20 -16l-12 -11l17 -34l-25 -90v-328l8 -146l55 -32l9 6v-6l26 -15l37 -4l33 19l12 -15h25l82 82l45 54l8 75l37 15v37h6l27 51l-9 57l19 16v52l10 65l43 45l-43 45l-164 4 l-35 21l11 61l71 29l107 -8l35 -21l24 8h58l24 -26v-266l19 -224l-11 9v-33l19 -82v-8l43 -19h26l19 -24l20 -19h43l19 -20h24l9 -25v-69l-9 -13v-14h-4l-12 -18h-45l-8 6h-25l-45 -27h-29v8l-77 13l-45 18h-72v14l-29 29l-96 -8v-8l-37 -21h-8l-8 8l-37 -26l-115 -27 l-12 -8l-70 53h-45v21l-33 8h-36l8 8l-17 16l-10 125l-18 72l18 37v330l-18 43l-9 47l-20 26l-47 4l-23 -12l-32 12l-29 52z" />
<glyph unicode="v" d="M14 780l19 19l-8 53l43 35h43l20 18h16v-10l21 -14l285 6l34 -17l25 -8h12l6 -71l-77 -62l-43 -12l-21 -15l8 -38l66 -107l4 -43h57l6 10l19 -37l-19 -53l27 -28l12 12l-12 -58l-27 -24l39 -33l43 94l-10 37l-8 8h18l19 37v8l-10 9h10l8 18h16l35 64l12 86l17 20v25 l-29 20l-14 16l-12 -8l-70 43l8 43l74 64h33l20 -17l4 11v-11h39l39 17l12 -17h224l38 -26v-21l5 -4l12 -45l-45 -20l-37 -9l-33 -16h-82l-24 -27l-13 -55l-24 -26v-72l-29 -43l-4 -55l-31 -45l11 -35h-11l-8 -25l-27 -43l-16 -65l-27 -17l7 -53l10 -10v-35l-29 8l-6 8 l-20 -16l12 -74l-21 -24l-53 -54l-33 -20l-57 8l-6 12l-27 27h-12l-14 82l-11 24l-26 89l-6 -11l-13 43l-16 21v26l-10 11l-9 63l-34 35l6 70l-27 28v17l12 10l-36 51l-27 55v47l-39 70l-16 16h-27l-18 -16l-60 16l-43 9h-12z" />
<glyph unicode="w" d="M37 788l31 43l26 13l70 -21h108l7 -8v-45l-46 -45l39 -61l-12 -62l-14 -20l45 -68l-31 -90l31 -55l24 -9l54 -53l37 17l45 108l-13 10l-14 25v47l27 25l49 -9l20 -30v-43l-37 -33l-8 -27l8 -12v-139l-32 -45l20 -25l-14 -12l18 -33l-24 -74v-32l-27 -45l-31 -13h-4v-24 l-8 8l-12 -8h-33l-64 98l-18 16l6 133l-27 35v66l-16 16l8 99h8v36l-24 15l-8 100l-11 8h-18v45l-14 11l-31 88l-33 32h-18zM438 788v17h144l53 18l72 -8v-61h-43l-9 -13l-26 -4l6 -82l-25 -8l-8 78l-53 -33h-21v25l-32 37l-39 8zM616 530v27l39 21l9 -58l8 -24l53 -72v-27 l45 -118l25 -7h20l43 64v61l47 35l-10 10l-18 115v35l18 72l-10 8h10v53l-25 29l-18 -17l-12 25v37l12 6l121 39v8l82 -8v-21l18 -8l8 -10h-8l-10 -6v-19h-14l-13 -10l-24 -29v-49l4 -12h-4l-25 -51v-51l-20 -21v-43l-27 -47l-35 -35l8 -26v-37l-8 12l-20 -39l20 -18 l-10 -52l-25 -63l15 -51l-8 -90v-27h-7l-12 -37h-6l-12 -24h-70l-29 6l-34 47l-15 98v70l-20 20l-8 58l-17 63l17 18v37l8 27l-8 8h-17v19l-18 6l6 63l-6 10h-13z" />
<glyph unicode="x" d="M92 41l8 27l43 43l82 12l8 8l66 8l4 8l21 21l8 25l28 8l33 37v34l27 19h29l47 37v18l24 14l25 11l20 18l-12 8l20 21l-8 49l-26 20h-19l-10 27l-53 64l-51 69l-21 55l-25 27h-73l-70 -12h-20l-9 -8l-16 28h-29l-16 25l16 57l199 17h25l53 -17l63 4l62 13l47 -37v-45h-47 l-49 -9v-28l14 -25l16 -20h13l6 12l20 -72l-12 -10l12 -6h17l10 -39l6 -33l45 6l37 39v13l18 20l-10 10l62 35l81 82l-36 33l-54 -33h-24l-12 -12l-17 57v49l45 29h29l78 -47l100 14l72 4l61 13l33 -31v-43l12 -8l-82 -25l-63 8l-8 8h-19l-37 -43l-26 -10l-52 -28v-52 l-26 -16v-18l-19 -21l9 -8l-33 -10l-21 -15l9 -10l-52 -90l7 -27v-16l36 -21l45 -45l9 13l45 -56l8 -26h10l8 -45v-19l43 -24l21 -27l10 8l14 -16h29l98 -19l9 -10l8 10l26 -10l27 -45l-18 -59l-121 -19h-29l-18 19h-25l-18 -19h-146l-14 19l-29 -19l-61 19h8l8 8l-16 35 l8 53v18l106 7l-81 71l-17 43l10 13l-10 8l-45 90l-35 -8l-16 -21v-61h-19l-8 -8v-17h-12l-27 -98l56 -37v-6l10 -12l-10 -64l-37 -33l-45 19l-25 -10l-18 -21l-43 39l-8 -8l-29 -10l-223 -9l-15 19h-33l13 8z" />
<glyph unicode="y" d="M100 -131l39 102l25 27h18v2l-8 8l8 6l6 -10l21 29l51 -8l10 -11h29l25 -24l-9 -10l52 -91h-7l-61 -63v-27l61 -24l17 -19l53 56l33 14l37 76l-4 6l30 39l39 43l8 51l-20 8h12v45l-12 53l-33 21v8l-10 6l-10 82l-43 64v8l6 10l-25 25l19 18l-43 78v39l-8 90l-13 6h-16v19 l-27 26l-8 45l-27 45v25l-36 12l-136 6l-4 39h-12l61 33l99 -29l45 21l35 8v-8l10 -8h8l21 16v-8l14 -8v-62l-6 -12l16 -33l-16 -20l16 -17l-10 -80l29 -16l34 -133l13 -29l4 8v-18l39 -18l14 -52v-8l-8 -10l20 -21v-32l17 -45h16l-6 -25l16 -20l35 20l29 25l-13 8l21 18 l8 64l10 43v26h7l36 109l29 24v52l35 65l-10 12l20 33l4 37l-33 51l-81 -6l-17 17l-8 53l18 18l27 -10l80 -16h26v-13l9 -4h26l11 4h45l24 -18h45l21 18l16 -18h14v-43l-14 -17l-16 17h-39l10 12l-18 6h-25l-18 -51h-13l-8 -12v-15h-6l-29 -30l11 -43v-27h-11l-18 -72 l-29 -16l12 -63h-12l-24 -80l-19 -25v-10l10 -8l-24 -37l-37 -45l8 -21v-24h-8l-27 -78l7 -37l-17 -18l17 -19l-7 -24l-39 -91v-32l-51 -76l-16 -14l6 -13h-6l-10 -16v-27h-9l-20 -18v-8l12 -6h-12l-8 -15v-16l-6 12h-13l-26 -29l-62 -34h-61l-35 -19h-39l-16 19l-78 18 l-27 33l-10 -8v20l-18 19v-15h-15v15h4l11 6l-27 18v35l-8 8zM449 819l51 25l45 -25l-6 -28l-39 8l-25 20h-26z" />
<glyph unicode="z" d="M119 86h8l8 14l8 39l66 70l-8 12l24 4h27l39 47l43 43l26 21l-12 6h19l43 43v12l-4 9l18 18l43 18l45 58l90 92v10l70 33v20l26 9l64 73v4l-57 13l-15 -17l-18 4h-39l-223 -16h-50l-18 -27l6 -6l-14 -20v-152l-10 -33l-9 -12h-20l-4 -18l-21 -25l-10 -8v-10h-27l13 10 l-21 18l-24 33v154l8 43l16 20v96l21 17l-13 10l37 37l9 -8l12 8l24 25h19l8 -7l18 17l33 -17h74l213 -12l35 -6h26l9 6h133v-6l10 -8h20l9 -45v-45l-45 -37l-29 -8l-43 -54v-26h-10l-9 -8v-19h-45l-26 -45l18 -27l-18 -43h-25l-39 -45l-4 -36l-65 -25l-25 -57l-37 -9 l-37 -16l-8 -27l-26 -26l26 -70l17 -18l53 18v-12l20 -21l25 15l12 24l25 -6l6 -12h14l4 12v14l8 -8l13 8v19l33 -45h63l18 82h19l18 18v72l60 88h30l33 -27l19 -28v-179l-25 -14v-18l6 -15l19 -24v-8l-25 -25v-37l-47 -69l-82 18l-31 -12l-39 -35h-36l-25 35l-115 -6 l-20 -58l-25 -33l-20 9v69h-76l-57 -8l-43 -51l-9 8l-20 35v29l-4 6l-21 -19l-57 -8l-12 21h-37l-21 18h-16v35z" />
<glyph unicode="{" d="M324 668l90 28l86 33l-13 172l27 17l-6 8l-25 90l4 33l27 28l-27 33v57l-4 60l49 112l80 41l35 45h82l53 -20l25 29l20 -17l27 8h35l20 -45l-26 -63l-121 -8l-4 -6l-47 -21v21l-68 6l-35 -39l90 -94l-63 -91l-19 -18l9 -51l43 -55l-58 -35l33 -29l-10 -82l-12 -27l38 -96 l-167 -12l-25 -64l145 -30l9 -58l22 -57l-27 -47l-6 -168l15 -63l-76 -82l76 -78l-9 -37l13 -45l-88 -70l12 -8l-21 -16l64 20l63 -51l19 -23l33 -12l39 35l57 14l29 13l53 -66l-6 -47v-31l-47 -12l-86 4l-64 20l-43 27l-82 43l-49 16l-49 93l20 114l13 54l-9 36l-4 70 l-20 72l24 37l-8 209l-57 49l-84 20z" />
<glyph unicode="|" d="M442 852v18l33 39l-4 25l-20 12v15h6v26l-15 17l15 26l2 88l-2 31l-8 43v12l14 19l8 30l-4 4v82h4l4 29l25 21h8l22 -54h9l-13 -49l9 -8l-13 -35v-29l8 -18l-4 -33v-22l19 -39v-12l16 -21l-22 -49v-4l6 -8l-6 -21l-9 -8l11 -29l-2 -4l14 -33l-4 -16l-4 -45h4l4 -115 l-12 -78v-12l20 -29l-8 -14l8 -18l-4 -33l8 -8l-8 -31l4 -31h-4l-8 -73l24 -50l-12 -26l8 -10l-4 -13l13 -20l-5 -17l9 -8l4 -10l-8 -31l4 -8l8 -37l4 -12l-8 -21h-4v-49l-4 -20l12 -45v-37l-12 -25l-5 -20h-12l-4 -19l-4 -2v-8h-14l-4 -4l-25 -4l-23 29l-4 28l-12 37v41h-4 l8 12l-8 29l12 19l-12 26v53l8 21l-16 33l16 41l-8 28v39l-8 2l12 37v31l4 22l-16 29l8 8l-10 27v39h2l4 33h4v26l-4 4v82l4 39l-8 8l12 56l-22 61z" />
<glyph unicode="}" d="M340 -260l25 63l118 9l9 6l45 18v-18l69 -6l33 36l-6 99v86l10 24l-8 52l-35 51l33 24l-8 37l10 86l-4 62l-21 59l68 35l104 41l-63 28l-8 60l-84 59l24 119l8 94l-16 62l25 82l-25 77l72 39l-13 47l-8 48l-10 6l18 18l-51 -2l-61 53l-21 23l-32 10l-37 -33l-60 -16 l-30 -12l-52 65l7 49v29l45 16l90 -8l61 -18l125 -70l51 -16l49 -92l-20 -115l-16 -53l30 -37l-14 -70l18 -72l-26 -38l12 -207l45 -43l82 -21l29 -73l-29 -48l-70 -38l-77 -17l8 -172l-25 -12l8 -12l25 -89l-8 -32l-25 -31l25 -33v-57l8 -57l-51 -111l-80 -43l-35 -43h-82 l-51 16l-27 -28l-18 16l-29 -4h-35zM604 1157l29 51l47 -4l-47 -59z" />
<glyph unicode="~" d="M92 410l27 24l16 66l31 26v11l35 53l45 10l10 -10l31 57l63 25h70l47 -25l57 4l41 -26l-4 -31l35 -16l-10 -29l26 -19l19 19l28 -66l39 17l27 -17l8 27l33 2l4 31l-12 18l4 21h16l-6 22l23 10l32 33l113 -14l43 -33l21 -31l-9 -86l-34 -16l16 -21l-4 -18l-23 -6l-57 -37 l-45 -8l-12 -43l-13 6l-32 -25h-46l-12 -12l-33 16l-36 -16l-25 -8l-27 24h-12l-35 -12l-35 33l-43 20l-24 68l-27 18l8 29h-34l-21 17l-27 -17l-18 21l-29 -4l-4 -25l4 -107l-53 -45h-16l-21 -20l-12 20l-33 -12l-49 31l-8 -15l-14 66z" />
<glyph unicode="&#xa0;" />
<glyph unicode="&#xa4;" d="M-115 -49l19 115l80 53h82l30 8l13 8l34 -8l168 -18l8 -7h17l10 7l47 10h422l166 -17l27 17l151 -10l37 -7l16 -18l11 6l18 -18l21 18l4 -6l-9 -8l9 -10h20l-20 -132l-37 -45l-45 -20h-25l-18 -16h-8l-11 12l-8 -12l-45 12l-96 16l-119 -12l-18 20l-35 -20l-90 12 l-29 -28l-219 12l-90 16l-27 -16l-27 4l-266 12l-59 8l-76 27zM-115 350l19 113l80 55h82l30 8l13 9l34 -9l168 -18l8 -8h17l10 8l47 10h422l166 -18l27 18l151 -10l37 -8l16 -17l11 4l18 -16l21 16l4 -4l-9 -8l9 -12h20l-20 -129l-37 -47l-45 -19h-25l-18 -16h-8l-11 10 l-8 -10l-141 29l-119 -13l-18 19l-35 -19l-90 13l-29 -29l-219 10l-90 19l-27 -19l-27 6l-266 13l-59 6l-76 28zM-115 -446l19 112l80 55h82l30 9l13 8l34 -8l168 -21l8 -4h17l57 16h422l166 -16l27 16l188 -16l16 -20l11 8l18 -21l21 21l4 -8l-9 -9l9 -10h20l-20 -129 l-37 -47l-45 -18h-25l-18 -17h-8l-11 10l-8 -10l-141 29l-119 -12l-18 18l-35 -18l-90 12l-29 -29l-219 10l-90 19l-27 -19l-27 7l-266 12l-59 6l-76 27zM-115 729l19 111l80 55h82l30 10l13 8l34 -8l168 -20l8 -6h17l10 6l47 10h422l166 -16l27 16l151 -10l37 -6l16 -19 l11 6l18 -18l21 18l4 -6l-9 -8l9 -12h20l-20 -129l-37 -47l-45 -17h-25l-18 -18h-8l-11 10l-8 -10l-141 30l-119 -12l-18 17l-35 -17l-90 12l-29 -30l-219 10l-90 20l-27 -20l-27 8l-325 17l-76 28zM-115 1116l19 113l80 53h82l30 10l13 8l34 -8l168 -18l8 -8h17l10 8l47 8 h422l166 -16l27 16l151 -8l37 -8l16 -17l11 4l18 -18l21 18l4 -4l-9 -10l9 -10h20l-20 -131l-37 -45l-45 -19h-25l-18 -18h-8l-11 12l-8 -12l-45 12l-96 19l-119 -13l-18 19l-35 -19l-90 13l-29 -31l-219 12l-90 19l-27 -19l-27 6l-266 13l-59 6l-76 28zM-115 1516l19 110 l80 55h82l30 11l13 8l34 -8l168 -21l8 -6h17l10 6l47 10h422l166 -16l27 16l151 -10l37 -6l16 -18l11 6l18 -19l21 19l4 -6l-9 -9l9 -12h20l-20 -129l-37 -47l-45 -16h-25l-18 -19h-8l-11 10l-8 -10l-141 31l-119 -12l-18 16l-35 -16l-90 12l-29 -31l-219 10l-90 21l-27 -21 l-27 9l-325 16l-76 29z" />
<glyph unicode="&#xa7;" d="M188 680l2 197l48 20l-25 51l35 47l43 35l24 47v60l41 -27l-37 70l-16 69l53 140l41 24l-12 33l59 31l78 18l60 2l51 -8l55 -35l90 -115l-10 -61l-27 -55l-36 -27l-54 16l-39 37v76l66 64v16l-27 25l-78 -41l-24 16h-37l-72 -16l31 -50l-35 -26l-4 -51l17 -66v-86l34 18 l29 -43l111 -81l53 -35l57 -64l-12 -49l33 -29l73 -22l13 -64l-9 -49l74 -45v-194l-49 -93l-8 -53l-51 21l-19 -78l-6 -62l33 -53l6 -47l-6 -55l-37 -119l-68 -90l-88 -37l-20 -25l-60 25l-32 4l-47 12l-33 4h-27l-26 21l-19 37l-33 -4l-59 33l10 126l64 111l63 16h39 l35 -51l37 4l45 -84l24 -22l74 -2l4 78v34l-28 56l-74 73l-10 66l-47 107l-56 34l-16 47v45l-43 37l-78 27l-51 -14l-31 65zM367 762l108 -98l37 -48l-8 -47l41 -24l67 -103l11 -53l65 -27l66 170l-39 115l-142 176l35 -18l-59 72l-62 4l-4 49l-34 -12h-64l-18 -17v-139z " />
<glyph unicode="&#xab;" d="M18 373l31 98l82 70l35 84l72 6l34 63l58 64l55 14v47l12 8v25l33 10l49 -10l13 74l100 -21l67 -49l31 -84l-67 -31v-63l-62 6l-82 -37v-51l-78 -18l-71 -29l-82 -86l8 -70l47 -24l98 -78l91 -27l30 -74l94 -10l11 -37l32 -67l-34 -88l-43 -21h-43l-142 74l-67 41l-11 45 l-47 25l-22 41l-119 77h-37zM471 367l33 96l78 72l36 83l74 7l33 63l57 62l58 16l-4 49l12 4v25l35 12l51 -12l10 74l100 -21l66 -49l33 -82l-66 -33v-61l-65 6l-78 -39l-4 -49l-74 -17l-74 -32l-82 -84l9 -68l45 -27l102 -79l88 -25l31 -74l94 -10l12 -39l29 -65l-33 -88 l-41 -23h-45l-143 74l-66 43l-10 47l-47 20l-23 43l-120 78h-33z" />
<glyph unicode="&#xad;" d="M49 479l43 78l80 55h82l33 9l12 8l33 -8l61 -19l13 -6h14l10 6l45 10h258l82 -16l25 16l151 -10l37 -6l16 -18l11 4l18 -17l21 17l4 -4l-8 -9l8 -12h20l-12 -139l-8 -64l-37 -47l-45 -16h-25l-18 -19h-8l-11 11l-8 -11l-141 31l-35 -12l-20 16l-33 -16l-90 12l-29 -31 l-53 11l-88 20l-27 -20l-24 8l-224 16l-76 29l-30 35l-15 63v29z" />
<glyph unicode="&#xb0;" d="M176 995l10 90v17l9 8l-9 12l15 54v106l37 61v17h8l18 55h12l7 6v21h8l37 43l90 82l53 8l8 6l45 21l107 -9l47 25l51 -8l45 -43l6 8h13l18 -19h25v-20l34 -33l11 8l53 -69l-8 -8l32 -45l19 -21l-6 -8l33 -35l12 -25v-14l4 -4l-16 -20l16 -25v-57l14 -33v-82l-18 -25 l-21 -106v-21l-24 -12l-13 -14v-25l-32 -39l8 -4l-29 -28l-69 -54l-13 -28l-78 -19l-61 -31h-20l14 5l-19 20l-106 -8h-82l-18 33l-64 20l-61 62l-52 45l-30 45h-17l-34 32l6 13l-15 24zM336 1253l18 -61l11 -55l8 -105l24 -28v-17l82 -119l45 -6v-8h97l57 33h24l19 -19 l24 33l-8 4l62 64v26l-6 9l26 28l17 15v55l26 53l-26 64l-17 18l4 33l-12 16h-12l-6 74l-64 37v6l-37 12v6l-33 13l-45 32l7 -8l-43 -16l-9 -8l-12 8l-25 -21l-90 -6l-45 -37l-24 -35l-8 -57z" />
<glyph unicode="&#xb6;" d="M90 891l29 125l53 74l16 55l119 35l74 45l240 6l210 -17l173 17l81 -60l9 -41l-45 -40h-82l-45 -21l-82 21l-17 -21l13 -92l-9 -31v-24l9 -127l-13 -195l35 -63l-14 -88l-4 -121v-123l39 -37l43 -21l155 -24l17 -47l-17 -43l-102 -39l-90 -8l-406 -11l-63 45l-105 -32 l-37 26v19l17 16l37 66l53 -13l61 45l45 82l19 191l-55 63l-91 35h-122l-74 27v88l-21 74l-34 55zM561 1042l25 -342l28 -28l29 28l8 88l29 35l-21 138l9 100l-25 29l-57 -13zM578 311l36 -129h11l55 56l-21 135l13 172l-70 20l4 -73z" />
<glyph unicode="&#xbb;" d="M-8 96l65 31v63l66 -6l78 37l4 51l74 19l73 28l82 87l-8 69l-45 25l-102 78l-89 26l-30 74l-94 10l-13 37l-28 68l32 88l41 20h45l144 -74l65 -41l10 -45l48 -24l22 -41l121 -78h33l78 -102l-33 -99l-78 -69l-37 -84l-74 -6l-32 -64l-58 -63l-57 -15l4 -47l-12 -8v-25 l-35 -10l-51 10l-11 -73l-100 20l-65 49zM438 96l68 31v63l63 -6l78 37l4 51l74 19l74 28l82 87l-9 69l-45 25l-102 78l-86 26l-33 74l-94 10l-12 37l-29 68l33 88l41 20h45l143 -74l66 -41l12 -45l45 -24l23 -41l120 -78h35l76 -102l-33 -99l-78 -69l-36 -84l-74 -6 l-33 -64l-57 -63l-58 -15l4 -47l-12 -8v-25l-35 -10l-51 10l-8 -73l-102 20l-66 49z" />
<glyph unicode="&#x2000;" horiz-adv-x="850" />
<glyph unicode="&#x2001;" horiz-adv-x="1700" />
<glyph unicode="&#x2002;" horiz-adv-x="850" />
<glyph unicode="&#x2003;" horiz-adv-x="1700" />
<glyph unicode="&#x2004;" horiz-adv-x="566" />
<glyph unicode="&#x2005;" horiz-adv-x="425" />
<glyph unicode="&#x2006;" horiz-adv-x="283" />
<glyph unicode="&#x2007;" horiz-adv-x="283" />
<glyph unicode="&#x2008;" horiz-adv-x="212" />
<glyph unicode="&#x2009;" horiz-adv-x="340" />
<glyph unicode="&#x200a;" horiz-adv-x="94" />
<glyph unicode="&#x2010;" d="M49 479l43 78l80 55h82l33 9l12 8l33 -8l61 -19l13 -6h14l10 6l45 10h258l82 -16l25 16l151 -10l37 -6l16 -18l11 4l18 -17l21 17l4 -4l-8 -9l8 -12h20l-12 -139l-8 -64l-37 -47l-45 -16h-25l-18 -19h-8l-11 11l-8 -11l-141 31l-35 -12l-20 16l-33 -16l-90 12l-29 -31 l-53 11l-88 20l-27 -20l-24 8l-224 16l-76 29l-30 35l-15 63v29z" />
<glyph unicode="&#x2011;" d="M49 479l43 78l80 55h82l33 9l12 8l33 -8l61 -19l13 -6h14l10 6l45 10h258l82 -16l25 16l151 -10l37 -6l16 -18l11 4l18 -17l21 17l4 -4l-8 -9l8 -12h20l-12 -139l-8 -64l-37 -47l-45 -16h-25l-18 -19h-8l-11 11l-8 -11l-141 31l-35 -12l-20 16l-33 -16l-90 12l-29 -31 l-53 11l-88 20l-27 -20l-24 8l-224 16l-76 29l-30 35l-15 63v29z" />
<glyph unicode="&#x2012;" d="M49 479l43 78l80 55h82l33 9l12 8l33 -8l61 -19l13 -6h14l10 6l45 10h258l82 -16l25 16l151 -10l37 -6l16 -18l11 4l18 -17l21 17l4 -4l-8 -9l8 -12h20l-12 -139l-8 -64l-37 -47l-45 -16h-25l-18 -19h-8l-11 11l-8 -11l-141 31l-35 -12l-20 16l-33 -16l-90 12l-29 -31 l-53 11l-88 20l-27 -20l-24 8l-224 16l-76 29l-30 35l-15 63v29z" />
<glyph unicode="&#x2013;" d="M-115 371l19 112l80 56h82l30 10l13 8l34 -8l168 -21l8 -6h17l10 6l47 11h422l166 -17l27 17l151 -11l37 -6l16 -18l11 6l18 -18l21 18l4 -6l-9 -8l9 -13h20l-20 -129l-37 -47l-45 -16h-25l-18 -19h-8l-11 11l-8 -11l-141 31l-119 -12l-18 16l-35 -16l-90 12l-29 -31 l-219 11l-90 20l-27 -20l-27 8l-325 16l-76 29z" />
<glyph unicode="&#x2014;" d="M49 479l43 78l80 55h82l33 9l12 8l94 -27l13 -6h14l10 6l45 10h258l82 -16l25 16l151 -10l37 -6l16 -18l11 4l18 -17l21 17l4 -4l-8 -9l8 -12h20l-12 -139l-8 -64l-37 -47l-45 -16h-25l-18 -19h-8l-11 11l-8 -11l-141 31l-35 -12l-20 16l-33 -16l-90 12l-29 -31l-53 11 l-88 20l-27 -20l-24 8l-224 16l-76 29l-30 35l-15 63v29z" />
<glyph unicode="&#x2018;" d="M352 1184v65h6l15 82v99l8 -11l12 35h17l41 66l-7 4l31 32l-8 7l49 55l57 45l70 14h37l45 -80l-25 -77h-12l-8 -15l-16 -16l8 -4l-13 -15v-24h-20l-23 -16v-25l-8 -8l31 -4l4 -9h16l5 -20l8 -8h16l6 -29l15 -14l-9 -6l9 -11l20 -43l-14 -69l-27 -41v-15l-29 -18l-30 -25 l-6 9l-50 -37h-20l-16 16l-50 -12v12l-8 4h-20l8 8l-23 13h-14v8l-29 14h-12v23l-31 45z" />
<glyph unicode="&#x2019;" d="M410 1481l14 67l27 43v15l28 16l31 29l6 -9l49 35h21l16 -14l49 10v-10l8 -6h21l-8 -6l22 -17h15v-8l28 -12h13v-23l30 -47l6 4v-63h-6l-14 -82v-96l-8 8l-13 -37h-16l-41 -64l6 -4l-30 -30l8 -9l-49 -53l-58 -45l-69 -16h-37l-43 80l22 77h13l8 15l16 16l-8 4l12 17v20 h21l22 21v22l8 10l-30 4l-4 9h-17l-4 20l-8 6h-16l-7 29l-14 14l8 9l-8 8z" />
<glyph unicode="&#x201a;" d="M362 176l19 88l33 51v21l37 18l36 35l9 -8l61 43h29l18 -18l64 12v-12l4 -9h28l-8 -8l27 -18h18v-11l33 -14h18v-31l39 -57l4 6v-82h-4l-20 -102v-121l-8 12l-17 -45h-20l-51 -82l8 -6l-37 -39l10 -8l-63 -67l-72 -58l-86 -18h-45l-57 100l28 96h17l12 21l18 16l-12 8 l19 19v26h28l25 25v31l10 8l-35 6l-8 10h-20l-7 27l-12 8h-18l-8 37l-17 18l8 7l-8 12z" />
<glyph unicode="&#x201c;" d="M94 1184v65h6l15 82v99l8 -11l12 35h17l41 66l-7 4l31 32l-8 7l49 55l57 45l70 14h37l45 -80l-25 -77h-12l-8 -15l-16 -16l10 -4l-15 -15v-24h-20l-23 -16v-25l-8 -8l31 -4l4 -9h16l5 -20l10 -8h14l6 -29l15 -14l-9 -6l9 -11l20 -43l-14 -69l-27 -41v-15l-29 -18l-30 -25 l-6 9l-50 -37h-20l-16 16l-50 -12v12l-8 4h-20l8 8l-23 13h-14v8l-29 14h-12v23l-31 45zM573 1184v65h5l16 82v99l6 -11l14 35h15l43 66l-8 4l30 32l-8 7l51 55l56 45l71 14h37l43 -80l-22 -77h-13l-8 -15l-18 -16l10 -4l-14 -15v-24h-21l-22 -16v-25l-9 -8l31 -4l6 -9h15 l4 -20l10 -8h16l4 -29l17 -14l-8 -6l8 -11l20 -43l-16 -69l-25 -41v-15l-30 -18l-31 -25l-4 9l-51 -37h-21l-14 16l-51 -12v12l-7 4h-20l6 8l-22 13h-13v8l-28 14h-15v23l-30 45z" />
<glyph unicode="&#x201d;" d="M135 1481l17 67l26 43v15l31 16l29 29l6 -9l51 35h20l15 -14l51 10v-10l4 -6h21l-5 -6l21 -17h14v-8l27 -12h16v-23l29 -47l6 4v-63h-6l-16 -82v-96l-5 8l-16 -37h-14l-41 -64l6 -4l-29 -30l8 -9l-51 -53l-55 -45l-74 -16h-35l-43 80l23 77h12l8 15l19 16l-12 4l16 17v20 h20l21 21v22l8 10l-29 4l-8 9h-12l-4 20l-12 6h-15l-6 29l-14 14l8 9l-8 8zM614 1481l15 67l26 43v15l31 16l29 29l6 -9l51 35h21l14 -14l51 10v-10l6 -6h21l-6 -6l22 -17h12v-8l29 -12h14v-23l31 -47l4 4v-63h-4l-16 -82v-96l-6 8l-15 -37h-16l-41 -64l8 -4l-31 -30l9 -9 l-52 -53l-55 -45l-72 -16h-36l-43 80l22 77h12l9 15l18 16l-10 4l14 17v20h21l22 21v22l8 10l-30 4l-7 9h-14l-4 20l-10 6h-17l-4 29l-16 14l8 9l-8 8z" />
<glyph unicode="&#x201e;" d="M135 160l17 69l26 41v17l31 16l29 27l6 -11l51 37h20l15 -14l51 10v-10l4 -6h21l-5 -6l21 -15h14v-8l27 -12h16v-25l29 -45l6 4v-65h-6l-16 -82v-96l-5 8l-16 -35h-14l-41 -65l6 -5l-29 -32l8 -4l-51 -58l-55 -45l-74 -14h-35l-43 80l23 78h12l8 14l19 16l-12 4l16 15v24 h20l21 19v22l8 8l-29 4l-8 9h-12l-4 20l-12 8h-15l-6 29l-14 14l8 6zM586 160l16 69l27 41v17l30 16l29 27l6 -11l51 37h21l14 -14l51 10v-10l5 -6h22l-6 -6l20 -15h15v-8l26 -12h17v-25l28 -45l7 4v-65h-7l-14 -82v-96l-6 8l-16 -35h-13l-43 -65l6 -5l-28 -32l8 -4l-51 -58 l-56 -45l-73 -14h-33l-45 80l22 78h13l10 14l16 16l-12 4l16 15v24h21l20 19v22l9 8l-29 4l-8 9h-13l-4 20l-12 8h-14l-6 29l-15 14l8 6z" />
<glyph unicode="&#x2022;" d="M315 389h9v25l-9 96l45 82l64 47h14l29 25l61 18l11 -10h18l8 16l115 -49l70 -74v-37l12 -6l18 -43l-30 -78v-43h-9l-4 -34v-25l-82 -37l-53 -37h-37l-8 -8l-18 16l-39 -16l-4 -8l-29 8l-43 45l-10 -8h-29l-25 33l-24 90z" />
<glyph unicode="&#x2026;" d="M66 160h6v24l-6 97l43 81l63 48h14l31 24l59 19l11 -11h20l4 17l117 -49l43 -48l29 -24v-39l10 -4l18 -45l-28 -76v-43h-8l-9 -35v-24l-82 -39l-51 -37h-39l-4 -6l-20 16l-37 -16l-6 -8l-27 8l-45 43l-10 -8h-27l-26 32l-25 90zM635 168h8v25l-8 98l45 80l61 47h17l28 24 l62 21l10 -12h19l6 16l116 -49l43 -47l27 -25v-39l12 -4l17 -45l-29 -76v-43h-8l-6 -35v-24l-82 -39l-51 -37h-39l-6 -6l-19 16l-39 -16l-4 -8l-29 8l-45 43l-8 -8h-28l-25 35l-25 90z" />
<glyph unicode="&#x202f;" horiz-adv-x="340" />
<glyph unicode="&#x205f;" horiz-adv-x="425" />
<glyph unicode="&#x25fc;" horiz-adv-x="849" d="M0 0v850h850v-850h-850z" />
</font>
</defs>
</svg>
